CommissionerLoud-BlackItalic.ufo
<glyph name="numbersign" format="2">
  <advance width="714"/>
  <unicode hex="0023"/>
  <outline>
    <contour>
      <point x="-22" y="100" type="line"/>
      <point x="54" y="103"/>
      <point x="130" y="106"/>
      <point x="188" y="108" type="curve"/>
      <point x="422" y="108" type="line"/>
      <point x="478" y="106"/>
      <point x="554" y="103"/>
      <point x="628" y="100" type="curve"/>
      <point x="665" y="276" type="line"/>
      <point x="590" y="273"/>
      <point x="513" y="270"/>
      <point x="456" y="268" type="curve"/>
      <point x="222" y="268" type="line"/>
      <point x="165" y="270"/>
      <point x="90" y="273"/>
      <point x="15" y="276" type="curve"/>
    </contour>
    <contour>
      <point x="20" y="0" type="curve"/>
      <point x="220" y="0" type="line"/>
      <point x="241" y="69"/>
      <point x="260" y="134"/>
      <point x="286" y="219" type="curve"/>
      <point x="373" y="453" type="line"/>
      <point x="412" y="546"/>
      <point x="434" y="598"/>
      <point x="466" y="673" type="curve"/>
      <point x="271" y="673" type="line"/>
      <point x="247" y="595"/>
      <point x="231" y="542"/>
      <point x="205" y="453" type="curve"/>
      <point x="118" y="219" type="line"/>
      <point x="79" y="132"/>
      <point x="49" y="65"/>
    </contour>
    <contour>
      <point x="84" y="394" type="line"/>
      <point x="160" y="397"/>
      <point x="237" y="400"/>
      <point x="294" y="402" type="curve"/>
      <point x="528" y="402" type="line"/>
      <point x="585" y="400"/>
      <point x="660" y="397"/>
      <point x="734" y="394" type="curve"/>
      <point x="772" y="570" type="line"/>
      <point x="696" y="567"/>
      <point x="620" y="564"/>
      <point x="562" y="562" type="curve"/>
      <point x="328" y="562" type="line"/>
      <point x="272" y="564"/>
      <point x="196" y="567"/>
      <point x="122" y="570" type="curve"/>
    </contour>
    <contour>
      <point x="280" y="0" type="curve"/>
      <point x="480" y="0" type="line"/>
      <point x="501" y="69"/>
      <point x="520" y="134"/>
      <point x="546" y="219" type="curve"/>
      <point x="633" y="453" type="line"/>
      <point x="672" y="546"/>
      <point x="694" y="598"/>
      <point x="726" y="673" type="curve"/>
      <point x="531" y="673" type="line"/>
      <point x="507" y="595"/>
      <point x="491" y="542"/>
      <point x="465" y="453" type="curve"/>
      <point x="378" y="219" type="line"/>
      <point x="339" y="132"/>
      <point x="309" y="65"/>
    </contour>
  </outline>
</glyph>
<glyph name="asterisk" format="2">
  <advance width="513"/>
  <unicode hex="002A"/>
  <outline>
    <contour>
      <point x="437" y="305" type="curve"/>
      <point x="535" y="413" type="line"/>
      <point x="470" y="457"/>
      <point x="403" y="500"/>
      <point x="338" y="544" type="curve"/>
      <point x="287" y="604"/>
      <point x="237" y="666"/>
      <point x="187" y="726" type="curve"/>
      <point x="89" y="617" type="line"/>
      <point x="154" y="572"/>
      <point x="219" y="530"/>
      <point x="286" y="485" type="curve"/>
      <point x="336" y="425"/>
      <point x="387" y="364"/>
    </contour>
    <contour>
      <point x="112" y="373" type="line"/>
      <point x="183" y="408"/>
      <point x="253" y="443"/>
      <point x="324" y="478" type="curve"/>
      <point x="401" y="491"/>
      <point x="479" y="505"/>
      <point x="556" y="518" type="curve"/>
      <point x="511" y="658" type="line"/>
      <point x="441" y="623"/>
      <point x="371" y="588"/>
      <point x="300" y="553" type="curve"/>
      <point x="223" y="539"/>
      <point x="144" y="526"/>
      <point x="67" y="513" type="curve"/>
    </contour>
    <contour>
      <point x="191" y="302" type="curve"/>
      <point x="335" y="271" type="line"/>
      <point x="341" y="350"/>
      <point x="345" y="428"/>
      <point x="351" y="507" type="curve"/>
      <point x="378" y="581"/>
      <point x="405" y="655"/>
      <point x="432" y="729" type="curve"/>
      <point x="289" y="759" type="line"/>
      <point x="283" y="681"/>
      <point x="279" y="602"/>
      <point x="273" y="523" type="curve"/>
      <point x="246" y="449"/>
      <point x="218" y="376"/>
    </contour>
  </outline>
</glyph>
<glyph name="slash" format="2">
  <advance width="485"/>
  <unicode hex="002F"/>
  <outline>
    <contour>
      <point x="-57" y="0" type="curve"/>
      <point x="197" y="0" type="line"/>
      <point x="233" y="74"/>
      <point x="262" y="136"/>
      <point x="306" y="228" type="curve"/>
      <point x="440" y="474" type="line"/>
      <point x="497" y="568"/>
      <point x="536" y="632"/>
      <point x="586" y="713" type="curve"/>
      <point x="333" y="713" type="line"/>
      <point x="296" y="636"/>
      <point x="266" y="572"/>
      <point x="220" y="477" type="curve"/>
      <point x="84" y="228" type="line"/>
      <point x="28" y="139"/>
      <point x="-10" y="76"/>
    </contour>
  </outline>
</glyph>
<glyph name="zero" format="2">
  <advance width="678"/>
  <unicode hex="0030"/>
  <outline>
    <contour>
      <point x="321" y="-15" type="curve" smooth="yes"/>
      <point x="519" y="-15"/>
      <point x="618" y="101"/>
      <point x="663" y="315" type="curve" smooth="yes"/>
      <point x="707" y="528"/>
      <point x="628" y="706"/>
      <point x="396" y="706" type="curve" smooth="yes"/>
      <point x="192" y="706"/>
      <point x="98" y="583"/>
      <point x="55" y="374" type="curve" smooth="yes"/>
      <point x="14" y="173"/>
      <point x="81" y="-15"/>
    </contour>
    <contour>
      <point x="329" y="172" type="curve"/>
      <point x="275" y="179"/>
      <point x="270" y="255"/>
      <point x="290" y="353" type="curve" smooth="yes"/>
      <point x="312" y="459"/>
      <point x="342" y="511"/>
      <point x="391" y="518" type="curve"/>
      <point x="440" y="511"/>
      <point x="452" y="436"/>
      <point x="430" y="335" type="curve" smooth="yes"/>
      <point x="408" y="233"/>
      <point x="379" y="179"/>
    </contour>
  </outline>
</glyph>
<glyph name="three" format="2">
  <advance width="596"/>
  <unicode hex="0033"/>
  <outline>
    <contour>
      <point x="245" y="-16" type="curve" smooth="yes"/>
      <point x="443" y="-16"/>
      <point x="525" y="44"/>
      <point x="551" y="169" type="curve" smooth="yes"/>
      <point x="573" y="272"/>
      <point x="515" y="329"/>
      <point x="454" y="349" type="curve"/>
      <point x="457" y="365" type="line"/>
      <point x="526" y="378"/>
      <point x="584" y="406"/>
      <point x="602" y="492" type="curve" smooth="yes"/>
      <point x="626" y="605"/>
      <point x="533" y="706"/>
      <point x="356" y="706" type="curve" smooth="yes"/>
      <point x="310" y="706"/>
      <point x="201" y="681"/>
      <point x="123" y="663" type="curve"/>
      <point x="95" y="438" type="line"/>
      <point x="162" y="467"/>
      <point x="286" y="516"/>
      <point x="299" y="516" type="curve"/>
      <point x="346" y="512"/>
      <point x="365" y="493"/>
      <point x="358" y="458" type="curve" smooth="yes"/>
      <point x="351" y="425"/>
      <point x="326" y="419"/>
      <point x="276" y="416" type="curve"/>
      <point x="245" y="419"/>
      <point x="216" y="422"/>
      <point x="186" y="425" type="curve"/>
      <point x="151" y="259" type="line"/>
      <point x="187" y="262"/>
      <point x="217" y="264"/>
      <point x="253" y="267" type="curve"/>
      <point x="303" y="264"/>
      <point x="329" y="249"/>
      <point x="323" y="217" type="curve" smooth="yes"/>
      <point x="317" y="188"/>
      <point x="294" y="177"/>
      <point x="248" y="174" type="curve"/>
      <point x="235" y="174"/>
      <point x="109" y="220"/>
      <point x="42" y="246" type="curve"/>
      <point x="-15" y="39" type="line"/>
      <point x="53" y="21"/>
      <point x="204" y="-16"/>
    </contour>
  </outline>
</glyph>
<glyph name="five" format="2">
  <advance width="593"/>
  <unicode hex="0035"/>
  <outline>
    <contour>
      <point x="240" y="-16" type="curve" smooth="yes"/>
      <point x="439" y="-16"/>
      <point x="525" y="62"/>
      <point x="551" y="189" type="curve" smooth="yes"/>
      <point x="580" y="333"/>
      <point x="501" y="431"/>
      <point x="393" y="431" type="curve" smooth="yes"/>
      <point x="374" y="431"/>
      <point x="337" y="422"/>
      <point x="306" y="409" type="curve"/>
      <point x="290" y="409" type="line"/>
      <point x="296" y="436" type="line"/>
      <point x="312" y="481"/>
      <point x="326" y="522"/>
      <point x="341" y="566" type="curve"/>
      <point x="258" y="496" type="line"/>
      <point x="355" y="496" type="line"/>
      <point x="429" y="489"/>
      <point x="507" y="482"/>
      <point x="581" y="475" type="curve"/>
      <point x="626" y="690" type="line"/>
      <point x="138" y="690" type="line"/>
      <point x="125" y="602"/>
      <point x="109" y="504"/>
      <point x="93" y="400" type="curve"/>
      <point x="67" y="276" type="line"/>
      <point x="163" y="269" type="line"/>
      <point x="183" y="277"/>
      <point x="223" y="287"/>
      <point x="253" y="287" type="curve"/>
      <point x="306" y="284"/>
      <point x="328" y="262"/>
      <point x="321" y="226" type="curve" smooth="yes"/>
      <point x="314" y="189"/>
      <point x="285" y="177"/>
      <point x="241" y="174" type="curve"/>
      <point x="228" y="174"/>
      <point x="107" y="220"/>
      <point x="42" y="246" type="curve"/>
      <point x="-15" y="39" type="line"/>
      <point x="52" y="21"/>
      <point x="200" y="-16"/>
    </contour>
  </outline>
</glyph>
<glyph name="equal" format="2">
  <advance width="590"/>
  <unicode hex="003D"/>
  <outline>
    <contour>
      <point x="13" y="76" type="line"/>
      <point x="89" y="79"/>
      <point x="166" y="82"/>
      <point x="223" y="84" type="curve"/>
      <point x="297" y="84" type="line"/>
      <point x="354" y="82"/>
      <point x="429" y="79"/>
      <point x="503" y="76" type="curve"/>
      <point x="547" y="282" type="line"/>
      <point x="472" y="279"/>
      <point x="395" y="276"/>
      <point x="338" y="274" type="curve"/>
      <point x="264" y="274" type="line"/>
      <point x="207" y="276"/>
      <point x="132" y="279"/>
      <point x="57" y="282" type="curve"/>
    </contour>
    <contour>
      <point x="68" y="336" type="line"/>
      <point x="144" y="339"/>
      <point x="221" y="342"/>
      <point x="278" y="344" type="curve"/>
      <point x="352" y="344" type="line"/>
      <point x="409" y="342"/>
      <point x="484" y="339"/>
      <point x="558" y="336" type="curve"/>
      <point x="602" y="542" type="line"/>
      <point x="527" y="539"/>
      <point x="450" y="536"/>
      <point x="393" y="534" type="curve"/>
      <point x="319" y="534" type="line"/>
      <point x="262" y="536"/>
      <point x="187" y="539"/>
      <point x="112" y="542" type="curve"/>
    </contour>
  </outline>
</glyph>
<glyph name="greater" format="2">
  <advance width="590"/>
  <unicode hex="003E"/>
  <outline>
    <contour>
      <point x="-8" y="23" type="line"/>
      <point x="75" y="54"/>
      <point x="150" y="82"/>
      <point x="217" y="107" type="curve"/>
      <point x="318" y="140" type="line"/>
      <point x="384" y="159"/>
      <point x="460" y="181"/>
      <point x="540" y="204" type="curve"/>
      <point x="585" y="414" type="line"/>
      <point x="515" y="437"/>
      <point x="448" y="459"/>
      <point x="390" y="478" type="curve"/>
      <point x="303" y="511" type="line"/>
      <point x="247" y="536"/>
      <point x="184" y="564"/>
      <point x="113" y="595" type="curve"/>
      <point x="68" y="385" type="line"/>
      <point x="113" y="373"/>
      <point x="157" y="361"/>
      <point x="202" y="349" type="curve"/>
      <point x="271" y="325" type="line"/>
      <point x="268" y="309" type="line"/>
      <point x="190" y="287" type="line"/>
      <point x="140" y="276"/>
      <point x="90" y="264"/>
      <point x="40" y="253" type="curve"/>
    </contour>
  </outline>
</glyph>
<glyph name="at" format="2">
  <advance width="902"/>
  <unicode hex="0040"/>
  <outline>
    <contour>
      <point x="492" y="-157" type="curve" smooth="yes"/>
      <point x="558" y="-157"/>
      <point x="682" y="-119"/>
      <point x="776" y="-95" type="curve"/>
      <point x="776" y="45" type="line"/>
      <point x="653" y="-2"/>
      <point x="527" y="-34"/>
      <point x="492" y="-37" type="curve"/>
      <point x="241" y="-32"/>
      <point x="127" y="119"/>
      <point x="176" y="338" type="curve" smooth="yes"/>
      <point x="208" y="482"/>
      <point x="303" y="592"/>
      <point x="487" y="597" type="curve"/>
      <point x="678" y="592"/>
      <point x="786" y="484"/>
      <point x="751" y="287" type="curve" smooth="yes"/>
      <point x="748" y="270"/>
      <point x="698" y="200"/>
      <point x="668" y="186" type="curve"/>
      <point x="635" y="190"/>
      <point x="626" y="212"/>
      <point x="644" y="297" type="curve"/>
      <point x="652" y="334" type="line"/>
      <point x="670" y="388"/>
      <point x="688" y="441"/>
      <point x="706" y="490" type="curve"/>
      <point x="536" y="482" type="line"/>
      <point x="518" y="436" type="line"/>
      <point x="505" y="436" type="line"/>
      <point x="471" y="473"/>
      <point x="432" y="495"/>
      <point x="408" y="495" type="curve" smooth="yes"/>
      <point x="316" y="495"/>
      <point x="255" y="409"/>
      <point x="236" y="314" type="curve" smooth="yes"/>
      <point x="210" y="183"/>
      <point x="268" y="67"/>
      <point x="375" y="67" type="curve" smooth="yes"/>
      <point x="395" y="67"/>
      <point x="436" y="92"/>
      <point x="484" y="125" type="curve"/>
      <point x="496" y="125" type="line"/>
      <point x="521" y="89"/>
      <point x="585" y="59"/>
      <point x="675" y="59" type="curve" smooth="yes"/>
      <point x="721" y="59"/>
      <point x="862" y="175"/>
      <point x="879" y="261" type="curve" smooth="yes"/>
      <point x="929" y="515"/>
      <point x="760" y="717"/>
      <point x="489" y="717" type="curve" smooth="yes"/>
      <point x="291" y="717"/>
      <point x="101" y="610"/>
      <point x="49" y="367" type="curve" smooth="yes"/>
      <point x="-12" y="83"/>
      <point x="156" y="-157"/>
    </contour>
    <contour>
      <point x="430" y="218" type="curve"/>
      <point x="409" y="220"/>
      <point x="398" y="252"/>
      <point x="404" y="282" type="curve" smooth="yes"/>
      <point x="411" y="316"/>
      <point x="430" y="338"/>
      <point x="455" y="341" type="curve"/>
      <point x="467" y="338"/>
      <point x="474" y="334"/>
      <point x="479" y="328" type="curve"/>
      <point x="460" y="239" type="line"/>
      <point x="451" y="226"/>
      <point x="443" y="223"/>
    </contour>
  </outline>
</glyph>
<glyph name="A" format="2">
  <advance width="753"/>
  <unicode hex="0041"/>
  <anchor x="324" y="0" name="bottom"/>
  <anchor x="700" y="0" name="ogonek"/>
  <anchor x="472" y="713" name="top"/>
  <outline>
    <contour>
      <point x="-57" y="0" type="curve"/>
      <point x="240" y="0" type="line"/>
      <point x="260" y="66"/>
      <point x="283" y="141"/>
      <point x="303" y="207" type="curve"/>
      <point x="426" y="510" type="line"/>
      <point x="442" y="510" type="line"/>
      <point x="444" y="205" type="line"/>
      <point x="438" y="140"/>
      <point x="431" y="66"/>
      <point x="425" y="0" type="curve"/>
      <point x="706" y="0" type="line"/>
      <point x="694" y="73"/>
      <point x="679" y="165"/>
      <point x="667" y="238" type="curve"/>
      <point x="647" y="487" type="line"/>
      <point x="648" y="573"/>
      <point x="649" y="638"/>
      <point x="650" y="713" type="curve"/>
      <point x="297" y="713" type="line"/>
      <point x="266" y="639"/>
      <point x="238" y="571"/>
      <point x="203" y="487" type="curve"/>
      <point x="81" y="243" type="line"/>
      <point x="37" y="166"/>
      <point x="-13" y="77"/>
    </contour>
    <contour>
      <point x="199" y="116" type="line"/>
      <point x="522" y="116" type="line"/>
      <point x="536" y="296" type="line"/>
      <point x="264" y="296" type="line"/>
    </contour>
  </outline>
</glyph>
<glyph name="E" format="2">
  <advance width="605"/>
  <unicode hex="0045"/>
  <anchor x="255" y="0" name="bottom"/>
  <anchor x="506" y="0" name="ogonek"/>
  <anchor x="405" y="713" name="top"/>
  <anchor x="135" y="713" name="topleft"/>
  <outline>
    <contour>
      <point x="-21" y="0" type="curve"/>
      <point x="257" y="0" type="line"/>
      <point x="266" y="40" type="line"/>
      <point x="275" y="114"/>
      <point x="283" y="178"/>
      <point x="295" y="269" type="curve"/>
      <point x="329" y="434" type="line"/>
      <point x="357" y="529"/>
      <point x="376" y="596"/>
      <point x="399" y="673" type="curve"/>
      <point x="407" y="713" type="line"/>
      <point x="129" y="713" type="line"/>
      <point x="119" y="636"/>
      <point x="111" y="573"/>
      <point x="98" y="474" type="curve"/>
      <point x="46" y="229" type="line"/>
      <point x="19" y="137"/>
      <point x="1" y="74"/>
    </contour>
    <contour>
      <point x="212" y="0" type="line"/>
      <point x="512" y="0" type="line"/>
      <point x="557" y="211" type="line"/>
      <point x="496" y="205"/>
      <point x="432" y="199"/>
      <point x="360" y="193" type="curve"/>
      <point x="253" y="193" type="line"/>
    </contour>
    <contour>
      <point x="238" y="271" type="line"/>
      <point x="360" y="271" type="line"/>
      <point x="438" y="266"/>
      <point x="492" y="263"/>
      <point x="549" y="260" type="curve"/>
      <point x="590" y="455" type="line"/>
      <point x="534" y="452"/>
      <point x="479" y="448"/>
      <point x="396" y="443" type="curve"/>
      <point x="274" y="443" type="line"/>
    </contour>
    <contour>
      <point x="306" y="520" type="line"/>
      <point x="413" y="520" type="line"/>
      <point x="497" y="512"/>
      <point x="554" y="507"/>
      <point x="611" y="502" type="curve"/>
      <point x="655" y="713" type="line"/>
      <point x="346" y="713" type="line"/>
    </contour>
  </outline>
</glyph>
<glyph name="F" format="2">
  <advance width="586"/>
  <unicode hex="0046"/>
  <outline>
    <contour>
      <point x="-21" y="0" type="curve"/>
      <point x="257" y="0" type="line"/>
      <point x="267" y="74"/>
      <point x="274" y="138"/>
      <point x="286" y="229" type="curve"/>
      <point x="329" y="434" type="line"/>
      <point x="356" y="529"/>
      <point x="377" y="596"/>
      <point x="399" y="673" type="curve"/>
      <point x="407" y="713" type="line"/>
      <point x="129" y="713" type="line"/>
      <point x="119" y="636"/>
      <point x="111" y="573"/>
      <point x="98" y="474" type="curve"/>
      <point x="46" y="229" type="line"/>
      <point x="19" y="137"/>
      <point x="1" y="74"/>
    </contour>
    <contour>
      <point x="227" y="245" type="line"/>
      <point x="349" y="245" type="line"/>
      <point x="427" y="240"/>
      <point x="480" y="237"/>
      <point x="537" y="234" type="curve"/>
      <point x="583" y="450" type="line"/>
      <point x="527" y="447"/>
      <point x="472" y="443"/>
      <point x="389" y="438" type="curve"/>
      <point x="267" y="438" type="line"/>
    </contour>
    <contour>
      <point x="299" y="511" type="line"/>
      <point x="406" y="511" type="line"/>
      <point x="490" y="503"/>
      <point x="547" y="498"/>
      <point x="604" y="493" type="curve"/>
      <point x="650" y="713" type="line"/>
      <point x="341" y="713" type="line"/>
    </contour>
  </outline>
</glyph>
<glyph name="G" format="2">
  <advance width="722"/>
  <unicode hex="0047"/>
  <anchor x="340" y="0" name="bottom"/>
  <anchor x="490" y="713" name="top"/>
  <outline>
    <contour>
      <point x="404" y="-15" type="curve" smooth="yes"/>
      <point x="461" y="-15"/>
      <point x="569" y="3"/>
      <point x="640" y="13" type="curve"/>
      <point x="645" y="231" type="line"/>
      <point x="567" y="209"/>
      <point x="450" y="177"/>
      <point x="420" y="177" type="curve"/>
      <point x="320" y="181"/>
      <point x="280" y="274"/>
      <point x="301" y="373" type="curve" smooth="yes"/>
      <point x="326" y="492"/>
      <point x="418" y="521"/>
      <point x="465" y="524" type="curve"/>
      <point x="484" y="524"/>
      <point x="594" y="493"/>
      <point x="694" y="455" type="curve"/>
      <point x="759" y="680" type="line"/>
      <point x="657" y="705"/>
      <point x="517" y="729"/>
      <point x="471" y="729" type="curve" smooth="yes"/>
      <point x="242" y="729"/>
      <point x="101" y="624"/>
      <point x="55" y="403" type="curve" smooth="yes"/>
      <point x="9" y="183"/>
      <point x="114" y="-15"/>
    </contour>
    <contour>
      <point x="391" y="13" type="curve"/>
      <point x="640" y="13" type="line"/>
      <point x="652" y="89"/>
      <point x="660" y="147"/>
      <point x="670" y="207" type="curve"/>
      <point x="691" y="275"/>
      <point x="708" y="325"/>
      <point x="725" y="381" type="curve"/>
      <point x="458" y="381" type="line"/>
      <point x="453" y="325"/>
      <point x="448" y="275"/>
      <point x="441" y="207" type="curve"/>
      <point x="425" y="147"/>
      <point x="410" y="90"/>
    </contour>
  </outline>
</glyph>
<glyph name="H" format="2">
  <advance width="761"/>
  <unicode hex="0048"/>
  <anchor x="328" y="0" name="bottom"/>
  <anchor x="403" y="357" name="center"/>
  <anchor x="478" y="713" name="top"/>
  <anchor x="140" y="713" name="topleft"/>
  <outline>
    <contour>
      <point x="392" y="0" type="curve"/>
      <point x="676" y="0" type="line"/>
      <point x="685" y="72"/>
      <point x="693" y="136"/>
      <point x="705" y="229" type="curve"/>
      <point x="757" y="474" type="line"/>
      <point x="785" y="572"/>
      <point x="804" y="636"/>
      <point x="826" y="713" type="curve"/>
      <point x="542" y="713" type="line"/>
      <point x="532" y="636"/>
      <point x="524" y="573"/>
      <point x="511" y="474" type="curve"/>
      <point x="459" y="229" type="line"/>
      <point x="432" y="137"/>
      <point x="414" y="74"/>
    </contour>
    <contour>
      <point x="-21" y="0" type="curve"/>
      <point x="263" y="0" type="line"/>
      <point x="272" y="72"/>
      <point x="280" y="136"/>
      <point x="292" y="229" type="curve"/>
      <point x="344" y="474" type="line"/>
      <point x="372" y="572"/>
      <point x="391" y="636"/>
      <point x="413" y="713" type="curve"/>
      <point x="129" y="713" type="line"/>
      <point x="119" y="636"/>
      <point x="111" y="573"/>
      <point x="98" y="474" type="curve"/>
      <point x="46" y="229" type="line"/>
      <point x="19" y="137"/>
      <point x="1" y="74"/>
    </contour>
    <contour>
      <point x="237" y="256" type="line"/>
      <point x="527" y="256" type="line"/>
      <point x="570" y="458" type="line"/>
      <point x="280" y="458" type="line"/>
    </contour>
  </outline>
</glyph>
<glyph name="I" format="2">
  <advance width="363"/>
  <unicode hex="0049"/>
  <anchor x="124" y="0" name="bottom"/>
  <anchor x="268" y="0" name="ogonek"/>
  <anchor x="274" y="713" name="top"/>
  <anchor x="128" y="713" name="topleft"/>
  <outline>
    <contour>
      <point x="-16" y="0" type="curve"/>
      <point x="273" y="0" type="line"/>
      <point x="282" y="72"/>
      <point x="290" y="136"/>
      <point x="302" y="229" type="curve"/>
      <point x="354" y="474" type="line"/>
      <point x="382" y="572"/>
      <point x="401" y="636"/>
      <point x="423" y="713" type="curve"/>
      <point x="134" y="713" type="line"/>
      <point x="124" y="636"/>
      <point x="116" y="573"/>
      <point x="103" y="474" type="curve"/>
      <point x="51" y="229" type="line"/>
      <point x="24" y="137"/>
      <point x="6" y="74"/>
    </contour>
  </outline>
</glyph>
<glyph name="K" format="2">
  <advance width="734"/>
  <unicode hex="004B"/>
  <anchor x="323" y="0" name="bottom"/>
  <anchor x="473" y="713" name="top"/>
  <outline>
    <contour>
      <point x="379" y="0" type="curve"/>
      <point x="691" y="0" type="line"/>
      <point x="660" y="68"/>
      <point x="610" y="178"/>
      <point x="574" y="257" type="curve"/>
      <point x="504" y="436" type="line"/>
      <point x="502" y="328" type="line"/>
      <point x="624" y="478" type="line"/>
      <point x="692" y="556"/>
      <point x="759" y="632"/>
      <point x="830" y="713" type="curve"/>
      <point x="502" y="713" type="line"/>
      <point x="473" y="655"/>
      <point x="451" y="611"/>
      <point x="427" y="563" type="curve"/>
      <point x="364" y="467" type="line"/>
      <point x="325" y="467" type="line"/>
      <point x="286" y="278" type="line"/>
      <point x="329" y="278" type="line"/>
      <point x="358" y="156" type="line"/>
      <point x="365" y="108"/>
      <point x="371" y="59"/>
    </contour>
    <contour>
      <point x="-21" y="0" type="curve"/>
      <point x="262" y="0" type="line"/>
      <point x="271" y="72"/>
      <point x="279" y="136"/>
      <point x="291" y="229" type="curve"/>
      <point x="343" y="474" type="line"/>
      <point x="371" y="572"/>
      <point x="390" y="636"/>
      <point x="412" y="713" type="curve"/>
      <point x="129" y="713" type="line"/>
      <point x="119" y="636"/>
      <point x="111" y="573"/>
      <point x="98" y="474" type="curve"/>
      <point x="46" y="229" type="line"/>
      <point x="19" y="137"/>
      <point x="1" y="74"/>
    </contour>
  </outline>
</glyph>
<glyph name="M" format="2">
  <advance width="971"/>
  <unicode hex="004D"/>
  <anchor x="432" y="0" name="bottom"/>
  <anchor x="582" y="713" name="top"/>
  <outline>
    <contour>
      <point x="-38" y="0" type="curve"/>
      <point x="231" y="0" type="line"/>
      <point x="244" y="69"/>
      <point x="257" y="133"/>
      <point x="268" y="191" type="curve"/>
      <point x="309" y="312" type="line"/>
      <point x="325" y="312" type="line"/>
      <point x="340" y="183" type="line"/>
      <point x="340" y="123"/>
      <point x="339" y="58"/>
      <point x="339" y="0" type="curve"/>
      <point x="536" y="0" type="line"/>
      <point x="558" y="57"/>
      <point x="581" y="121"/>
      <point x="605" y="183" type="curve"/>
      <point x="663" y="312" type="line"/>
      <point x="679" y="312" type="line"/>
      <point x="668" y="191" type="line"/>
      <point x="655" y="134"/>
      <point x="641" y="70"/>
      <point x="626" y="0" type="curve"/>
      <point x="903" y="0" type="line"/>
      <point x="903" y="73"/>
      <point x="903" y="142"/>
      <point x="903" y="229" type="curve"/>
      <point x="922" y="472" type="line"/>
      <point x="935" y="558"/>
      <point x="946" y="635"/>
      <point x="957" y="713" type="curve"/>
      <point x="672" y="713" type="line"/>
      <point x="645" y="648"/>
      <point x="624" y="596"/>
      <point x="601" y="540" type="curve"/>
      <point x="519" y="377" type="line"/>
      <point x="504" y="377" type="line"/>
      <point x="483" y="540" type="line"/>
      <point x="481" y="596"/>
      <point x="480" y="651"/>
      <point x="478" y="713" type="curve"/>
      <point x="202" y="713" type="line"/>
      <point x="181" y="635"/>
      <point x="160" y="558"/>
      <point x="137" y="472" type="curve"/>
      <point x="56" y="229" type="line"/>
      <point x="21" y="144"/>
      <point x="-9" y="71"/>
    </contour>
  </outline>
</glyph>
<glyph name="N" format="2">
  <advance width="756"/>
  <unicode hex="004E"/>
  <anchor x="326" y="0" name="bottom"/>
  <anchor x="476" y="713" name="top"/>
  <outline>
    <contour>
      <point x="-21" y="0" type="curve"/>
      <point x="246" y="0" type="line"/>
      <point x="255" y="72"/>
      <point x="263" y="136"/>
      <point x="275" y="229" type="curve"/>
      <point x="295" y="324" type="line"/>
      <point x="311" y="324" type="line"/>
      <point x="362" y="200" type="line"/>
      <point x="384" y="127"/>
      <point x="402" y="66"/>
      <point x="421" y="0" type="curve"/>
      <point x="671" y="0" type="line"/>
      <point x="680" y="72"/>
      <point x="688" y="136"/>
      <point x="700" y="229" type="curve"/>
      <point x="752" y="474" type="line"/>
      <point x="780" y="572"/>
      <point x="799" y="636"/>
      <point x="821" y="713" type="curve"/>
      <point x="554" y="713" type="line"/>
      <point x="544" y="636"/>
      <point x="536" y="573"/>
      <point x="523" y="474" type="curve"/>
      <point x="505" y="389" type="line"/>
      <point x="488" y="389" type="line"/>
      <point x="440" y="512" type="line"/>
      <point x="425" y="570"/>
      <point x="408" y="634"/>
      <point x="387" y="713" type="curve"/>
      <point x="129" y="713" type="line"/>
      <point x="119" y="636"/>
      <point x="111" y="573"/>
      <point x="98" y="474" type="curve"/>
      <point x="46" y="229" type="line"/>
      <point x="19" y="137"/>
      <point x="1" y="74"/>
    </contour>
  </outline>
</glyph>
<glyph name="R" format="2">
  <advance width="721"/>
  <unicode hex="0052"/>
  <anchor x="308" y="0" name="bottom"/>
  <anchor x="433" y="713" name="top"/>
  <outline>
    <contour>
      <point x="371" y="0" type="curve"/>
      <point x="677" y="0" type="line"/>
      <point x="654" y="55"/>
      <point x="617" y="144"/>
      <point x="589" y="211" type="curve"/>
      <point x="539" y="357" type="line"/>
      <point x="423" y="282" type="line"/>
      <point x="588" y="282"/>
      <point x="677" y="334"/>
      <point x="705" y="465" type="curve" smooth="yes"/>
      <point x="742" y="638"/>
      <point x="644" y="720"/>
      <point x="457" y="720" type="curve"/>
      <point x="352" y="718"/>
      <point x="218" y="715"/>
      <point x="129" y="713" type="curve"/>
      <point x="273" y="529" type="line"/>
      <point x="407" y="529" type="line" smooth="yes"/>
      <point x="441" y="529"/>
      <point x="458" y="502"/>
      <point x="449" y="460" type="curve" smooth="yes"/>
      <point x="438" y="409"/>
      <point x="412" y="398"/>
      <point x="382" y="398" type="curve" smooth="yes"/>
      <point x="278" y="398" type="line"/>
      <point x="247" y="251" type="line"/>
      <point x="424" y="251" type="line"/>
      <point x="299" y="348" type="line"/>
      <point x="353" y="141" type="line"/>
      <point x="358" y="100"/>
      <point x="364" y="56"/>
    </contour>
    <contour>
      <point x="-21" y="0" type="curve"/>
      <point x="258" y="0" type="line"/>
      <point x="268" y="74"/>
      <point x="275" y="138"/>
      <point x="287" y="229" type="curve"/>
      <point x="330" y="434" type="line"/>
      <point x="357" y="529"/>
      <point x="378" y="596"/>
      <point x="400" y="673" type="curve"/>
      <point x="129" y="713" type="line"/>
      <point x="119" y="636"/>
      <point x="111" y="573"/>
      <point x="98" y="474" type="curve"/>
      <point x="46" y="229" type="line"/>
      <point x="19" y="137"/>
      <point x="1" y="74"/>
    </contour>
  </outline>
</glyph>
<glyph name="T" format="2">
  <advance width="651"/>
  <unicode hex="0054"/>
  <anchor x="274" y="0" name="bottom"/>
  <anchor x="336" y="299" name="center"/>
  <anchor x="424" y="713" name="top"/>
  <outline>
    <contour>
      <point x="131" y="0" type="curve"/>
      <point x="414" y="0" type="line"/>
      <point x="423" y="72"/>
      <point x="431" y="136"/>
      <point x="443" y="229" type="curve"/>
      <point x="487" y="434" type="line"/>
      <point x="507" y="529"/>
      <point x="528" y="596"/>
      <point x="557" y="673" type="curve"/>
      <point x="565" y="713" type="line"/>
      <point x="282" y="713" type="line"/>
      <point x="274" y="673" type="line"/>
      <point x="271" y="596"/>
      <point x="262" y="529"/>
      <point x="242" y="434" type="curve"/>
      <point x="198" y="229" type="line"/>
      <point x="171" y="137"/>
      <point x="153" y="74"/>
    </contour>
    <contour>
      <point x="68" y="476" type="line"/>
      <point x="118" y="483"/>
      <point x="174" y="491"/>
      <point x="243" y="501" type="curve"/>
      <point x="298" y="501" type="line"/>
      <point x="342" y="713" type="line"/>
      <point x="118" y="713" type="line"/>
    </contour>
    <contour>
      <point x="461" y="501" type="line"/>
      <point x="516" y="501" type="line"/>
      <point x="586" y="490"/>
      <point x="635" y="483"/>
      <point x="679" y="476" type="curve"/>
      <point x="729" y="713" type="line"/>
      <point x="505" y="713" type="line"/>
    </contour>
  </outline>
</glyph>
<glyph name="X" format="2">
  <advance width="758"/>
  <unicode hex="0058"/>
  <outline>
    <contour>
      <point x="-53" y="0" type="curve"/>
      <point x="278" y="0" type="line"/>
      <point x="292" y="40"/>
      <point x="307" y="82"/>
      <point x="320" y="118" type="curve"/>
      <point x="364" y="207" type="line"/>
      <point x="380" y="207" type="line"/>
      <point x="392" y="118" type="line"/>
      <point x="393" y="84"/>
      <point x="394" y="44"/>
      <point x="394" y="0" type="curve"/>
      <point x="708" y="0" type="line"/>
      <point x="676" y="76"/>
      <point x="647" y="144"/>
      <point x="615" y="220" type="curve"/>
      <point x="567" y="377" type="line"/>
      <point x="555" y="317" type="line"/>
      <point x="672" y="494" type="line"/>
      <point x="719" y="553"/>
      <point x="777" y="627"/>
      <point x="845" y="713" type="curve"/>
      <point x="513" y="713" type="line"/>
      <point x="495" y="665"/>
      <point x="479" y="619"/>
      <point x="464" y="580" type="curve"/>
      <point x="426" y="502" type="line"/>
      <point x="410" y="502" type="line"/>
      <point x="399" y="580" type="line"/>
      <point x="398" y="617"/>
      <point x="398" y="664"/>
      <point x="397" y="713" type="curve"/>
      <point x="94" y="713" type="line"/>
      <point x="126" y="629"/>
      <point x="151" y="562"/>
      <point x="177" y="494" type="curve"/>
      <point x="218" y="345" type="line"/>
      <point x="231" y="400" type="line"/>
      <point x="110" y="215" type="line"/>
      <point x="53" y="140"/>
      <point x="3" y="74"/>
    </contour>
  </outline>
</glyph>
<glyph name="Y" format="2">
  <advance width="713"/>
  <unicode hex="0059"/>
  <anchor x="307" y="0" name="bottom"/>
  <anchor x="459" y="713" name="top"/>
  <anchor x="117" y="713" name="topleft"/>
  <outline>
    <contour>
      <point x="251" y="222" type="line"/>
      <point x="466" y="222" type="line"/>
      <point x="669" y="520" type="line"/>
      <point x="716" y="579"/>
      <point x="766" y="642"/>
      <point x="822" y="713" type="curve"/>
      <point x="490" y="713" type="line"/>
      <point x="470" y="646"/>
      <point x="460" y="613"/>
      <point x="443" y="557" type="curve"/>
      <point x="407" y="474" type="line"/>
      <point x="392" y="474" type="line"/>
      <point x="386" y="558" type="line"/>
      <point x="388" y="612"/>
      <point x="390" y="645"/>
      <point x="393" y="713" type="curve"/>
      <point x="88" y="713" type="line"/>
      <point x="120" y="636"/>
      <point x="143" y="582"/>
      <point x="169" y="520" type="curve"/>
    </contour>
    <contour>
      <point x="166" y="0" type="curve"/>
      <point x="451" y="0" type="line"/>
      <point x="460" y="72"/>
      <point x="468" y="136"/>
      <point x="480" y="229" type="curve"/>
      <point x="522" y="429" type="line"/>
      <point x="275" y="429" type="line"/>
      <point x="233" y="229" type="line"/>
      <point x="206" y="137"/>
      <point x="188" y="74"/>
    </contour>
  </outline>
</glyph>
<glyph name="Z" format="2">
  <advance width="704"/>
  <unicode hex="005A"/>
  <anchor x="299" y="0" name="bottom"/>
  <anchor x="374" y="357" name="center"/>
  <anchor x="449" y="713" name="top"/>
  <outline>
    <contour>
      <point x="-23" y="0" type="line"/>
      <point x="621" y="0" type="line"/>
      <point x="669" y="227" type="line"/>
      <point x="606" y="220"/>
      <point x="510" y="209"/>
      <point x="441" y="201" type="curve"/>
      <point x="303" y="201" type="line"/>
      <point x="321" y="131" type="line"/>
      <point x="572" y="388" type="line"/>
      <point x="627" y="439"/>
      <point x="681" y="490"/>
      <point x="726" y="532" type="curve"/>
      <point x="764" y="713" type="line"/>
      <point x="140" y="713" type="line"/>
      <point x="92" y="482" type="line"/>
      <point x="171" y="493"/>
      <point x="244" y="503"/>
      <point x="309" y="512" type="curve"/>
      <point x="462" y="512" type="line"/>
      <point x="439" y="582" type="line"/>
      <point x="188" y="319" type="line"/>
      <point x="129" y="264"/>
      <point x="48" y="188"/>
      <point x="9" y="152" type="curve"/>
    </contour>
  </outline>
</glyph>
<glyph name="bracketleft" format="2">
  <advance width="445"/>
  <unicode hex="005B"/>
  <outline>
    <contour>
      <point x="-41" y="-130" type="curve"/>
      <point x="194" y="-130" type="line"/>
      <point x="202" y="-90" type="line"/>
      <point x="212" y="-16"/>
      <point x="219" y="48"/>
      <point x="231" y="139" type="curve"/>
      <point x="308" y="504" type="line"/>
      <point x="335" y="599"/>
      <point x="355" y="666"/>
      <point x="377" y="743" type="curve"/>
      <point x="386" y="783" type="line"/>
      <point x="151" y="783" type="line"/>
      <point x="139" y="704"/>
      <point x="130" y="642"/>
      <point x="117" y="544" type="curve"/>
      <point x="23" y="99" type="line"/>
      <point x="-2" y="8"/>
      <point x="-21" y="-58"/>
    </contour>
    <contour>
      <point x="149" y="-130" type="line"/>
      <point x="335" y="-130" type="line"/>
      <point x="374" y="56" type="line"/>
      <point x="329" y="52"/>
      <point x="285" y="48"/>
      <point x="228" y="43" type="curve"/>
      <point x="185" y="43" type="line"/>
    </contour>
    <contour>
      <point x="288" y="610" type="line"/>
      <point x="335" y="610" type="line"/>
      <point x="398" y="605"/>
      <point x="442" y="601"/>
      <point x="483" y="597" type="curve"/>
      <point x="522" y="783" type="line"/>
      <point x="325" y="783" type="line"/>
    </contour>
  </outline>
</glyph>
<glyph name="asciicircum" format="2">
  <advance width="658"/>
  <unicode hex="005E"/>
  <outline>
    <contour>
      <point x="466" y="339" type="curve"/>
      <point x="642" y="341" type="line"/>
      <point x="611" y="457"/>
      <point x="580" y="574"/>
      <point x="549" y="690" type="curve"/>
      <point x="254" y="690" type="line"/>
      <point x="188" y="575"/>
      <point x="121" y="458"/>
      <point x="55" y="343" type="curve"/>
      <point x="253" y="343" type="line"/>
      <point x="295" y="398"/>
      <point x="333" y="448"/>
      <point x="375" y="503" type="curve"/>
      <point x="390" y="503" type="line"/>
      <point x="415" y="449"/>
      <point x="441" y="393"/>
    </contour>
  </outline>
</glyph>
<glyph name="n" format="2">
  <advance width="602"/>
  <unicode hex="006E"/>
  <anchor x="246" y="0" name="bottom"/>
  <anchor x="352" y="502" name="top"/>
  <outline>
    <contour>
      <point x="-27" y="0" type="curve"/>
      <point x="231" y="0" type="line"/>
      <point x="240" y="69"/>
      <point x="247" y="129"/>
      <point x="255" y="200" type="curve"/>
      <point x="274" y="291" type="line"/>
      <point x="286" y="303"/>
      <point x="316" y="318"/>
      <point x="321" y="318" type="curve" smooth="yes"/>
      <point x="345" y="318"/>
      <point x="349" y="289"/>
      <point x="337" y="238" type="curve"/>
      <point x="330" y="200" type="line"/>
      <point x="310" y="129"/>
      <point x="293" y="69"/>
      <point x="273" y="0" type="curve"/>
      <point x="529" y="0" type="line"/>
      <point x="538" y="69"/>
      <point x="544" y="129"/>
      <point x="555" y="213" type="curve"/>
      <point x="563" y="252"/>
      <point x="578" y="297"/>
      <point x="584" y="326" type="curve" smooth="yes"/>
      <point x="608" y="440"/>
      <point x="561" y="518"/>
      <point x="456" y="518" type="curve" smooth="yes"/>
      <point x="420" y="518"/>
      <point x="353" y="484"/>
      <point x="295" y="441" type="curve"/>
      <point x="278" y="441" type="line"/>
      <point x="281" y="512" type="line"/>
      <point x="68" y="502" type="line"/>
      <point x="60" y="419"/>
      <point x="54" y="342"/>
      <point x="47" y="263" type="curve"/>
      <point x="36" y="213" type="line"/>
      <point x="11" y="129"/>
      <point x="-6" y="69"/>
    </contour>
  </outline>
</glyph>
<glyph name="p" format="2">
  <advance width="602"/>
  <unicode hex="0070"/>
  <outline>
    <contour>
      <point x="-68" y="-198" type="curve"/>
      <point x="196" y="-192" type="line"/>
      <point x="203" y="-123"/>
      <point x="208" y="-63"/>
      <point x="215" y="8" type="curve"/>
      <point x="222" y="41" type="line"/>
      <point x="233" y="41" type="line"/>
      <point x="277" y="6"/>
      <point x="324" y="-16"/>
      <point x="357" y="-16" type="curve" smooth="yes"/>
      <point x="473" y="-16"/>
      <point x="549" y="91"/>
      <point x="579" y="232" type="curve" smooth="yes"/>
      <point x="611" y="384"/>
      <point x="569" y="518"/>
      <point x="439" y="518" type="curve" smooth="yes"/>
      <point x="406" y="518"/>
      <point x="353" y="491"/>
      <point x="303" y="444" type="curve"/>
      <point x="285" y="444" type="line"/>
      <point x="290" y="512" type="line"/>
      <point x="68" y="502" type="line"/>
      <point x="60" y="419"/>
      <point x="54" y="342"/>
      <point x="47" y="263" type="curve"/>
      <point x="-4" y="21" type="line"/>
      <point x="-28" y="-63"/>
      <point x="-48" y="-129"/>
    </contour>
    <contour>
      <point x="288" y="172" type="curve"/>
      <point x="273" y="175"/>
      <point x="261" y="182"/>
      <point x="254" y="190" type="curve"/>
      <point x="278" y="305" type="line"/>
      <point x="289" y="320"/>
      <point x="304" y="329"/>
      <point x="320" y="333" type="curve"/>
      <point x="351" y="330"/>
      <point x="363" y="285"/>
      <point x="355" y="248" type="curve" smooth="yes"/>
      <point x="346" y="205"/>
      <point x="322" y="176"/>
    </contour>
  </outline>
</glyph>
<glyph name="r" format="2">
  <advance width="438"/>
  <unicode hex="0072"/>
  <anchor x="93" y="0" name="bottom"/>
  <anchor x="290" y="502" name="top"/>
  <outline>
    <contour>
      <point x="-27" y="0" type="curve"/>
      <point x="231" y="0" type="line"/>
      <point x="240" y="69"/>
      <point x="247" y="129"/>
      <point x="255" y="200" type="curve"/>
      <point x="269" y="262" type="line"/>
      <point x="289" y="280"/>
      <point x="333" y="295"/>
      <point x="343" y="295" type="curve" smooth="yes"/>
      <point x="352" y="295"/>
      <point x="379" y="288"/>
      <point x="414" y="278" type="curve"/>
      <point x="482" y="508" type="line"/>
      <point x="461" y="514"/>
      <point x="433" y="518"/>
      <point x="426" y="518" type="curve" smooth="yes"/>
      <point x="383" y="518"/>
      <point x="352" y="496"/>
      <point x="295" y="441" type="curve"/>
      <point x="278" y="441" type="line"/>
      <point x="281" y="512" type="line"/>
      <point x="68" y="502" type="line"/>
      <point x="60" y="419"/>
      <point x="54" y="342"/>
      <point x="47" y="263" type="curve"/>
      <point x="36" y="213" type="line"/>
      <point x="11" y="129"/>
      <point x="-6" y="69"/>
    </contour>
  </outline>
</glyph>
<glyph name="u" format="2">
  <advance width="595"/>
  <unicode hex="0075"/>
  <anchor x="243" y="0" name="bottom"/>
  <anchor x="512" y="0" name="ogonek"/>
  <anchor x="348" y="502" name="top"/>
  <anchor x="628" y="502" name="topright"/>
  <outline>
    <contour>
      <point x="140" y="-16" type="curve" smooth="yes"/>
      <point x="176" y="-16"/>
      <point x="243" y="18"/>
      <point x="301" y="61" type="curve"/>
      <point x="318" y="61" type="line"/>
      <point x="315" y="0" type="line"/>
      <point x="518" y="0" type="line"/>
      <point x="527" y="69"/>
      <point x="533" y="129"/>
      <point x="544" y="213" type="curve"/>
      <point x="557" y="273" type="line"/>
      <point x="585" y="373"/>
      <point x="602" y="433"/>
      <point x="622" y="502" type="curve"/>
      <point x="367" y="502" type="line"/>
      <point x="359" y="433"/>
      <point x="351" y="373"/>
      <point x="341" y="302" type="curve"/>
      <point x="321" y="206" type="line"/>
      <point x="309" y="194"/>
      <point x="279" y="179"/>
      <point x="274" y="179" type="curve" smooth="yes"/>
      <point x="250" y="179"/>
      <point x="245" y="208"/>
      <point x="257" y="259" type="curve" smooth="yes"/>
      <point x="266" y="302" type="line"/>
      <point x="286" y="373"/>
      <point x="305" y="439"/>
      <point x="325" y="508" type="curve"/>
      <point x="66" y="502" type="line"/>
      <point x="58" y="433"/>
      <point x="50" y="373"/>
      <point x="38" y="273" type="curve"/>
      <point x="30" y="234"/>
      <point x="21" y="205"/>
      <point x="15" y="176" type="curve" smooth="yes"/>
      <point x="-9" y="62"/>
      <point x="35" y="-16"/>
    </contour>
  </outline>
</glyph>
<glyph name="v" format="2">
  <advance width="583"/>
  <unicode hex="0076"/>
  <outline>
    <contour>
      <point x="113" y="0" type="curve"/>
      <point x="367" y="0" type="line"/>
      <point x="398" y="63"/>
      <point x="428" y="125"/>
      <point x="459" y="188" type="curve"/>
      <point x="508" y="278" type="line"/>
      <point x="553" y="353"/>
      <point x="597" y="428"/>
      <point x="641" y="502" type="curve"/>
      <point x="369" y="502" type="line"/>
      <point x="357" y="455"/>
      <point x="342" y="399"/>
      <point x="327" y="342" type="curve"/>
      <point x="292" y="238" type="line"/>
      <point x="276" y="238" type="line"/>
      <point x="281" y="342" type="line"/>
      <point x="288" y="398"/>
      <point x="295" y="456"/>
      <point x="301" y="508" type="curve"/>
      <point x="48" y="502" type="line"/>
      <point x="61" y="431"/>
      <point x="75" y="353"/>
      <point x="88" y="279" type="curve"/>
      <point x="100" y="190" type="line"/>
      <point x="104" y="127"/>
      <point x="109" y="63"/>
    </contour>
  </outline>
</glyph>
<glyph name="w" format="2">
  <advance width="865"/>
  <unicode hex="0077"/>
  <anchor x="374" y="0" name="bottom"/>
  <anchor x="479" y="502" name="top"/>
  <outline>
    <contour>
      <point x="88" y="0" type="curve"/>
      <point x="334" y="0" type="line"/>
      <point x="346" y="42"/>
      <point x="359" y="86"/>
      <point x="371" y="128" type="curve"/>
      <point x="400" y="209" type="line"/>
      <point x="414" y="209" type="line"/>
      <point x="411" y="133" type="line"/>
      <point x="406" y="89"/>
      <point x="401" y="42"/>
      <point x="397" y="0" type="curve"/>
      <point x="667" y="0" type="line"/>
      <point x="695" y="62"/>
      <point x="723" y="126"/>
      <point x="753" y="192" type="curve"/>
      <point x="798" y="279" type="line"/>
      <point x="841" y="355"/>
      <point x="882" y="427"/>
      <point x="925" y="502" type="curve"/>
      <point x="652" y="502" type="line"/>
      <point x="639" y="453"/>
      <point x="622" y="390"/>
      <point x="607" y="335" type="curve"/>
      <point x="572" y="227" type="line"/>
      <point x="557" y="227" type="line"/>
      <point x="564" y="333" type="line"/>
      <point x="571" y="389"/>
      <point x="579" y="448"/>
      <point x="586" y="502" type="curve"/>
      <point x="362" y="502" type="line"/>
      <point x="347" y="446"/>
      <point x="333" y="391"/>
      <point x="317" y="333" type="curve"/>
      <point x="282" y="227" type="line"/>
      <point x="267" y="227" type="line"/>
      <point x="274" y="333" type="line"/>
      <point x="281" y="389"/>
      <point x="289" y="452"/>
      <point x="296" y="508" type="curve"/>
      <point x="42" y="502" type="line"/>
      <point x="53" y="427"/>
      <point x="64" y="354"/>
      <point x="75" y="279" type="curve"/>
      <point x="82" y="191" type="line"/>
      <point x="84" y="127"/>
      <point x="86" y="63"/>
    </contour>
  </outline>
</glyph>
<glyph name="bar" format="2">
  <advance width="302"/>
  <unicode hex="007C"/>
  <outline>
    <contour>
      <point x="-44" y="-164" type="curve"/>
      <point x="170" y="-164" type="line"/>
      <point x="194" y="-28"/>
      <point x="221" y="126"/>
      <point x="228" y="165" type="curve"/>
      <point x="288" y="447" type="line"/>
      <point x="298" y="487"/>
      <point x="336" y="639"/>
      <point x="370" y="776" type="curve"/>
      <point x="156" y="776" type="line"/>
      <point x="132" y="639"/>
      <point x="105" y="486"/>
      <point x="98" y="447" type="curve"/>
      <point x="38" y="165" type="line"/>
      <point x="29" y="128"/>
      <point x="-10" y="-27"/>
    </contour>
  </outline>
</glyph>
<glyph name="currency" format="2">
  <advance width="684"/>
  <unicode hex="00A4"/>
  <outline>
    <contour>
      <point x="338" y="75" type="curve" smooth="yes"/>
      <point x="483" y="75"/>
      <point x="578" y="136"/>
      <point x="609" y="281" type="curve" smooth="yes"/>
      <point x="640" y="428"/>
      <point x="537" y="563"/>
      <point x="371" y="563" type="curve" smooth="yes"/>
      <point x="226" y="563"/>
      <point x="132" y="502"/>
      <point x="101" y="357" type="curve" smooth="yes"/>
      <point x="70" y="210"/>
      <point x="172" y="75"/>
    </contour>
    <contour>
      <point x="157" y="-11" type="line"/>
      <point x="210" y="42"/>
      <point x="263" y="96"/>
      <point x="304" y="137" type="curve"/>
      <point x="170" y="279" type="line"/>
      <point x="127" y="242"/>
      <point x="69" y="193"/>
      <point x="13" y="144" type="curve"/>
    </contour>
    <contour>
      <point x="352" y="253" type="curve"/>
      <point x="310" y="259"/>
      <point x="283" y="292"/>
      <point x="291" y="331" type="curve" smooth="yes"/>
      <point x="297" y="361"/>
      <point x="322" y="383"/>
      <point x="361" y="388" type="curve"/>
      <point x="405" y="381"/>
      <point x="429" y="346"/>
      <point x="422" y="311" type="curve" smooth="yes"/>
      <point x="415" y="274"/>
      <point x="390" y="255"/>
    </contour>
    <contour>
      <point x="190" y="360" type="curve"/>
      <point x="329" y="489" type="line"/>
      <point x="291" y="532"/>
      <point x="242" y="590"/>
      <point x="193" y="647" type="curve"/>
      <point x="42" y="506" type="line"/>
      <point x="95" y="453"/>
      <point x="150" y="400"/>
    </contour>
    <contour>
      <point x="521" y="-7" type="curve"/>
      <point x="672" y="134" type="line"/>
      <point x="619" y="187"/>
      <point x="564" y="240"/>
      <point x="524" y="280" type="curve"/>
      <point x="385" y="151" type="line"/>
      <point x="423" y="108"/>
      <point x="472" y="50"/>
    </contour>
    <contour>
      <point x="544" y="361" type="line"/>
      <point x="587" y="398"/>
      <point x="645" y="447"/>
      <point x="701" y="496" type="curve"/>
      <point x="557" y="651" type="line"/>
      <point x="504" y="598"/>
      <point x="451" y="544"/>
      <point x="410" y="503" type="curve"/>
    </contour>
  </outline>
</glyph>
<glyph name="plusminus" format="2">
  <advance width="590"/>
  <unicode hex="00B1"/>
  <outline>
    <contour>
      <point x="-15" y="-8" type="line"/>
      <point x="61" y="-5"/>
      <point x="137" y="-2"/>
      <point x="195" y="0" type="curve"/>
      <point x="289" y="0" type="line"/>
      <point x="345" y="-2"/>
      <point x="421" y="-5"/>
      <point x="495" y="-8" type="curve"/>
      <point x="539" y="198" type="line"/>
      <point x="463" y="195"/>
      <point x="386" y="192"/>
      <point x="329" y="190" type="curve"/>
      <point x="235" y="190" type="line"/>
      <point x="178" y="192"/>
      <point x="103" y="195"/>
      <point x="29" y="198" type="curve"/>
    </contour>
    <contour>
      <point x="64" y="366" type="line"/>
      <point x="140" y="369"/>
      <point x="217" y="372"/>
      <point x="274" y="374" type="curve"/>
      <point x="368" y="374" type="line"/>
      <point x="425" y="372"/>
      <point x="500" y="369"/>
      <point x="574" y="366" type="curve"/>
      <point x="618" y="572" type="line"/>
      <point x="543" y="569"/>
      <point x="466" y="566"/>
      <point x="409" y="564" type="curve"/>
      <point x="315" y="564" type="line"/>
      <point x="258" y="566"/>
      <point x="183" y="569"/>
      <point x="108" y="572" type="curve"/>
    </contour>
    <contour>
      <point x="182" y="224" type="curve"/>
      <point x="395" y="224" type="line"/>
      <point x="408" y="299"/>
      <point x="421" y="375"/>
      <point x="431" y="432" type="curve"/>
      <point x="447" y="506" type="line"/>
      <point x="461" y="563"/>
      <point x="480" y="639"/>
      <point x="499" y="714" type="curve"/>
      <point x="286" y="714" type="line"/>
      <point x="273" y="639"/>
      <point x="260" y="563"/>
      <point x="250" y="506" type="curve"/>
      <point x="234" y="432" type="line"/>
      <point x="220" y="375"/>
      <point x="201" y="299"/>
    </contour>
  </outline>
</glyph>
<glyph name="micro" format="2">
  <advance width="591"/>
  <unicode hex="00B5"/>
  <outline>
    <contour>
      <point x="-80" y="-198" type="curve"/>
      <point x="184" y="-192" type="line"/>
      <point x="191" y="-123"/>
      <point x="196" y="-63"/>
      <point x="203" y="8" type="curve"/>
      <point x="205" y="19" type="line"/>
      <point x="97" y="19" type="line"/>
      <point x="114" y="-3"/>
      <point x="140" y="-16"/>
      <point x="173" y="-16" type="curve" smooth="yes"/>
      <point x="203" y="-16"/>
      <point x="257" y="18"/>
      <point x="305" y="61" type="curve"/>
      <point x="322" y="61" type="line"/>
      <point x="324" y="0" type="line"/>
      <point x="529" y="0" type="line"/>
      <point x="532" y="69"/>
      <point x="535" y="134"/>
      <point x="538" y="189" type="curve"/>
      <point x="556" y="275" type="line"/>
      <point x="579" y="374"/>
      <point x="593" y="433"/>
      <point x="609" y="502" type="curve"/>
      <point x="366" y="502" type="line"/>
      <point x="357" y="433"/>
      <point x="349" y="371"/>
      <point x="340" y="302" type="curve"/>
      <point x="320" y="206" type="line"/>
      <point x="308" y="194"/>
      <point x="278" y="179"/>
      <point x="273" y="179" type="curve" smooth="yes"/>
      <point x="249" y="179"/>
      <point x="245" y="208"/>
      <point x="256" y="259" type="curve" smooth="yes"/>
      <point x="265" y="302" type="line"/>
      <point x="282" y="373"/>
      <point x="298" y="439"/>
      <point x="315" y="508" type="curve"/>
      <point x="65" y="502" type="line"/>
      <point x="57" y="435"/>
      <point x="49" y="373"/>
      <point x="37" y="273" type="curve"/>
      <point x="-16" y="21" type="line"/>
      <point x="-40" y="-63"/>
      <point x="-60" y="-129"/>
    </contour>
  </outline>
</glyph>
<glyph name="AE" format="2">
  <advance width="1025"/>
  <unicode hex="00C6"/>
  <anchor x="538" y="0" name="bottom"/>
  <anchor x="688" y="713" name="top"/>
  <outline>
    <contour>
      <point x="-57" y="0" type="curve"/>
      <point x="239" y="0" type="line"/>
      <point x="269" y="69"/>
      <point x="302" y="145"/>
      <point x="332" y="214" type="curve"/>
      <point x="497" y="520" type="line"/>
      <point x="529" y="520" type="line"/>
      <point x="685" y="520" type="line"/>
      <point x="753" y="713" type="line"/>
      <point x="365" y="713" type="line"/>
      <point x="329" y="643"/>
      <point x="290" y="567"/>
      <point x="249" y="487" type="curve"/>
      <point x="103" y="241" type="line"/>
      <point x="53" y="166"/>
      <point x="-5" y="78"/>
    </contour>
    <contour>
      <point x="221" y="116" type="line"/>
      <point x="544" y="116" type="line"/>
      <point x="558" y="296" type="line"/>
      <point x="286" y="296" type="line"/>
    </contour>
    <contour>
      <point x="399" y="0" type="curve"/>
      <point x="677" y="0" type="line"/>
      <point x="686" y="40" type="line"/>
      <point x="695" y="111"/>
      <point x="704" y="182"/>
      <point x="715" y="269" type="curve"/>
      <point x="750" y="435" type="line"/>
      <point x="778" y="532"/>
      <point x="797" y="597"/>
      <point x="819" y="673" type="curve"/>
      <point x="827" y="713" type="line"/>
      <point x="549" y="713" type="line"/>
      <point x="539" y="636"/>
      <point x="531" y="573"/>
      <point x="518" y="474" type="curve"/>
      <point x="466" y="229" type="line"/>
      <point x="439" y="137"/>
      <point x="421" y="75"/>
    </contour>
    <contour>
      <point x="632" y="0" type="line"/>
      <point x="932" y="0" type="line"/>
      <point x="977" y="211" type="line"/>
      <point x="922" y="206"/>
      <point x="847" y="199"/>
      <point x="780" y="193" type="curve"/>
      <point x="673" y="193" type="line"/>
    </contour>
    <contour>
      <point x="658" y="271" type="line"/>
      <point x="780" y="271" type="line"/>
      <point x="848" y="267"/>
      <point x="919" y="263"/>
      <point x="969" y="260" type="curve"/>
      <point x="1010" y="455" type="line"/>
      <point x="963" y="452"/>
      <point x="899" y="448"/>
      <point x="816" y="443" type="curve"/>
      <point x="694" y="443" type="line"/>
    </contour>
    <contour>
      <point x="726" y="520" type="line"/>
      <point x="833" y="520" type="line"/>
      <point x="910" y="513"/>
      <point x="976" y="507"/>
      <point x="1031" y="502" type="curve"/>
      <point x="1075" y="713" type="line"/>
      <point x="766" y="713" type="line"/>
    </contour>
  </outline>
</glyph>
<glyph name="oslash" format="2">
  <advance width="598"/>
  <unicode hex="00F8"/>
  <anchor x="352" y="502" name="top"/>
  <outline>
    <contour>
      <point x="279" y="-16" type="curve" smooth="yes"/>
      <point x="442" y="-16"/>
      <point x="543" y="74"/>
      <point x="575" y="224" type="curve" smooth="yes"/>
      <point x="607" y="374"/>
      <point x="519" y="518"/>
      <point x="319" y="518" type="curve" smooth="yes"/>
      <point x="155" y="518"/>
      <point x="55" y="429"/>
      <point x="23" y="279" type="curve" smooth="yes"/>
      <point x="-8" y="129"/>
      <point x="72" y="-16"/>
    </contour>
    <contour>
      <point x="280" y="141" type="curve"/>
      <point x="234" y="147"/>
      <point x="211" y="200"/>
      <point x="225" y="261" type="curve" smooth="yes"/>
      <point x="239" y="321"/>
      <point x="274" y="355"/>
      <point x="323" y="361" type="curve"/>
      <point x="373" y="352"/>
      <point x="386" y="297"/>
      <point x="373" y="241" type="curve" smooth="yes"/>
      <point x="361" y="186"/>
      <point x="328" y="147"/>
    </contour>
    <contour>
      <point x="82" y="-88" type="line"/>
      <point x="137" y="-20"/>
      <point x="186" y="39"/>
      <point x="245" y="112" type="curve"/>
      <point x="415" y="308" type="line"/>
      <point x="479" y="377"/>
      <point x="529" y="432"/>
      <point x="591" y="499" type="curve"/>
      <point x="500" y="574" type="line"/>
      <point x="444" y="505"/>
      <point x="395" y="445"/>
      <point x="336" y="372" type="curve"/>
      <point x="170" y="181" type="line"/>
      <point x="104" y="111"/>
      <point x="56" y="60"/>
      <point x="-6" y="-6" type="curve"/>
    </contour>
  </outline>
</glyph>
<glyph name="thorn" format="2">
  <advance width="598"/>
  <unicode hex="00FE"/>
  <outline>
    <contour>
      <point x="-73" y="-198" type="curve"/>
      <point x="191" y="-192" type="line"/>
      <point x="198" y="-123"/>
      <point x="203" y="-63"/>
      <point x="210" y="8" type="curve"/>
      <point x="217" y="41" type="line"/>
      <point x="228" y="41" type="line"/>
      <point x="272" y="6"/>
      <point x="319" y="-16"/>
      <point x="352" y="-16" type="curve" smooth="yes"/>
      <point x="469" y="-16"/>
      <point x="545" y="91"/>
      <point x="575" y="232" type="curve" smooth="yes"/>
      <point x="607" y="384"/>
      <point x="565" y="518"/>
      <point x="442" y="518" type="curve" smooth="yes"/>
      <point x="406" y="518"/>
      <point x="362" y="492"/>
      <point x="319" y="447" type="curve"/>
      <point x="303" y="447" type="line"/>
      <point x="313" y="493" type="line"/>
      <point x="342" y="589"/>
      <point x="367" y="675"/>
      <point x="391" y="752" type="curve"/>
      <point x="106" y="732" type="line"/>
      <point x="102" y="649"/>
      <point x="97" y="572"/>
      <point x="91" y="493" type="curve"/>
      <point x="-9" y="21" type="line"/>
      <point x="-33" y="-63"/>
      <point x="-53" y="-129"/>
    </contour>
    <contour>
      <point x="284" y="172" type="curve"/>
      <point x="269" y="175"/>
      <point x="257" y="182"/>
      <point x="250" y="190" type="curve"/>
      <point x="274" y="305" type="line"/>
      <point x="285" y="320"/>
      <point x="300" y="329"/>
      <point x="316" y="333" type="curve"/>
      <point x="347" y="330"/>
      <point x="359" y="285"/>
      <point x="351" y="248" type="curve" smooth="yes"/>
      <point x="342" y="205"/>
      <point x="318" y="176"/>
    </contour>
  </outline>
</glyph>
<glyph name="hbar" format="2">
  <advance width="598"/>
  <unicode hex="0127"/>
  <outline>
    <contour>
      <point x="46" y="540" type="line"/>
      <point x="110" y="543"/>
      <point x="170" y="547"/>
      <point x="224" y="550" type="curve"/>
      <point x="272" y="550" type="line"/>
      <point x="324" y="547"/>
      <point x="384" y="544"/>
      <point x="446" y="540" type="curve"/>
      <point x="480" y="701" type="line"/>
      <point x="416" y="698"/>
      <point x="355" y="694"/>
      <point x="301" y="691" type="curve"/>
      <point x="253" y="691" type="line"/>
      <point x="200" y="691"/>
      <point x="140" y="691"/>
      <point x="77" y="691" type="curve"/>
    </contour>
    <contour>
      <point x="-31" y="0" type="curve"/>
      <point x="227" y="0" type="line"/>
      <point x="236" y="69"/>
      <point x="242" y="129"/>
      <point x="251" y="200" type="curve"/>
      <point x="270" y="291" type="line"/>
      <point x="282" y="303"/>
      <point x="312" y="318"/>
      <point x="317" y="318" type="curve" smooth="yes"/>
      <point x="341" y="318"/>
      <point x="345" y="289"/>
      <point x="333" y="238" type="curve"/>
      <point x="326" y="200" type="line"/>
      <point x="306" y="129"/>
      <point x="289" y="69"/>
      <point x="269" y="0" type="curve"/>
      <point x="525" y="0" type="line"/>
      <point x="534" y="69"/>
      <point x="540" y="129"/>
      <point x="551" y="213" type="curve"/>
      <point x="559" y="252"/>
      <point x="574" y="297"/>
      <point x="580" y="326" type="curve" smooth="yes"/>
      <point x="604" y="440"/>
      <point x="557" y="518"/>
      <point x="452" y="518" type="curve" smooth="yes"/>
      <point x="423" y="518"/>
      <point x="368" y="487"/>
      <point x="320" y="447" type="curve"/>
      <point x="303" y="447" type="line"/>
      <point x="313" y="493" type="line"/>
      <point x="342" y="589"/>
      <point x="367" y="675"/>
      <point x="391" y="752" type="curve"/>
      <point x="142" y="734" type="line"/>
      <point x="124" y="649"/>
      <point x="108" y="572"/>
      <point x="91" y="493" type="curve"/>
      <point x="32" y="213" type="line"/>
      <point x="7" y="129"/>
      <point x="-10" y="69"/>
    </contour>
  </outline>
</glyph>
<glyph name="kgreenlandic" format="2">
  <advance width="614"/>
  <unicode hex="0138"/>
  <outline>
    <contour>
      <point x="291" y="0" type="curve"/>
      <point x="573" y="0" type="line"/>
      <point x="541" y="63"/>
      <point x="508" y="127"/>
      <point x="476" y="190" type="curve"/>
      <point x="419" y="321" type="line"/>
      <point x="451" y="226" type="line"/>
      <point x="519" y="317" type="line"/>
      <point x="569" y="379"/>
      <point x="618" y="440"/>
      <point x="668" y="502" type="curve"/>
      <point x="381" y="502" type="line"/>
      <point x="364" y="462"/>
      <point x="347" y="423"/>
      <point x="330" y="383" type="curve"/>
      <point x="295" y="318" type="line"/>
      <point x="257" y="318" type="line"/>
      <point x="227" y="176" type="line"/>
      <point x="267" y="176" type="line"/>
      <point x="281" y="108" type="line"/>
      <point x="285" y="72"/>
      <point x="288" y="36"/>
    </contour>
    <contour>
      <point x="-34" y="0" type="curve"/>
      <point x="224" y="0" type="line"/>
      <point x="229" y="57"/>
      <point x="234" y="107"/>
      <point x="241" y="166" type="curve"/>
      <point x="269" y="302" type="line"/>
      <point x="289" y="373"/>
      <point x="308" y="439"/>
      <point x="328" y="508" type="curve"/>
      <point x="69" y="502" type="line"/>
      <point x="61" y="433"/>
      <point x="53" y="373"/>
      <point x="41" y="273" type="curve"/>
      <point x="29" y="213" type="line"/>
      <point x="4" y="129"/>
      <point x="-13" y="69"/>
    </contour>
  </outline>
</glyph>
<glyph name="Lslash" format="2">
  <advance width="609"/>
  <unicode hex="0141"/>
  <outline>
    <contour>
      <point x="9" y="0" type="curve"/>
      <point x="293" y="0" type="line"/>
      <point x="302" y="40" type="line"/>
      <point x="304" y="114"/>
      <point x="312" y="178"/>
      <point x="331" y="269" type="curve"/>
      <point x="374" y="474" type="line"/>
      <point x="402" y="572"/>
      <point x="421" y="636"/>
      <point x="443" y="713" type="curve"/>
      <point x="159" y="713" type="line"/>
      <point x="149" y="636"/>
      <point x="141" y="573"/>
      <point x="128" y="474" type="curve"/>
      <point x="76" y="229" type="line"/>
      <point x="49" y="137"/>
      <point x="31" y="74"/>
    </contour>
    <contour>
      <point x="24" y="215" type="line"/>
      <point x="101" y="239"/>
      <point x="175" y="262"/>
      <point x="239" y="282" type="curve"/>
      <point x="296" y="297" type="line"/>
      <point x="358" y="312"/>
      <point x="438" y="331"/>
      <point x="513" y="349" type="curve"/>
      <point x="498" y="529" type="line"/>
      <point x="422" y="505"/>
      <point x="347" y="481"/>
      <point x="284" y="461" type="curve"/>
      <point x="225" y="445" type="line"/>
      <point x="161" y="430"/>
      <point x="86" y="412"/>
      <point x="9" y="394" type="curve"/>
    </contour>
    <contour>
      <point x="242" y="0" type="line"/>
      <point x="532" y="0" type="line"/>
      <point x="582" y="237" type="line"/>
      <point x="517" y="229"/>
      <point x="463" y="223"/>
      <point x="371" y="212" type="curve"/>
      <point x="287" y="212" type="line"/>
    </contour>
  </outline>
</glyph>
<glyph name="eng" format="2">
  <advance width="597"/>
  <unicode hex="014B"/>
  <outline>
    <contour>
      <point x="194" y="-198" type="curve"/>
      <point x="401" y="-192" type="line"/>
      <point x="436" y="-150"/>
      <point x="510" y="-56"/>
      <point x="526" y="16" type="curve" smooth="yes"/>
      <point x="543" y="91"/>
      <point x="554" y="190"/>
      <point x="570" y="263" type="curve"/>
      <point x="575" y="285"/>
      <point x="580" y="310"/>
      <point x="584" y="326" type="curve" smooth="yes"/>
      <point x="608" y="440"/>
      <point x="561" y="518"/>
      <point x="456" y="518" type="curve" smooth="yes"/>
      <point x="420" y="518"/>
      <point x="353" y="484"/>
      <point x="295" y="441" type="curve"/>
      <point x="278" y="441" type="line"/>
      <point x="281" y="512" type="line"/>
      <point x="68" y="502" type="line"/>
      <point x="60" y="419"/>
      <point x="54" y="342"/>
      <point x="47" y="263" type="curve"/>
      <point x="36" y="213" type="line"/>
      <point x="11" y="129"/>
      <point x="-6" y="69"/>
      <point x="-27" y="0" type="curve"/>
      <point x="231" y="0" type="line"/>
      <point x="240" y="69"/>
      <point x="247" y="129"/>
      <point x="255" y="200" type="curve"/>
      <point x="274" y="291" type="line"/>
      <point x="286" y="303"/>
      <point x="316" y="318"/>
      <point x="321" y="318" type="curve" smooth="yes"/>
      <point x="345" y="318"/>
      <point x="349" y="289"/>
      <point x="337" y="238" type="curve"/>
      <point x="332" y="213" type="line"/>
      <point x="287" y="19" type="line"/>
      <point x="255" y="-59"/>
      <point x="224" y="-131"/>
    </contour>
  </outline>
</glyph>
<glyph name="florin" format="2">
  <advance width="560"/>
  <unicode hex="0192"/>
  <outline>
    <contour>
      <point x="70" y="-145" type="curve" smooth="yes"/>
      <point x="179" y="-145"/>
      <point x="298" y="-109"/>
      <point x="337" y="60" type="curve" smooth="yes"/>
      <point x="366" y="189"/>
      <point x="384" y="295"/>
      <point x="411" y="414" type="curve"/>
      <point x="423" y="433" type="line"/>
      <point x="414" y="448"/>
      <point x="398" y="475"/>
      <point x="400" y="482" type="curve"/>
      <point x="408" y="521"/>
      <point x="437" y="527"/>
      <point x="465" y="527" type="curve" smooth="yes"/>
      <point x="476" y="527"/>
      <point x="505" y="520"/>
      <point x="546" y="508" type="curve"/>
      <point x="601" y="689" type="line"/>
      <point x="561" y="697"/>
      <point x="501" y="706"/>
      <point x="474" y="706" type="curve" smooth="yes"/>
      <point x="361" y="706"/>
      <point x="235" y="669"/>
      <point x="198" y="504" type="curve" smooth="yes"/>
      <point x="164" y="351"/>
      <point x="142" y="210"/>
      <point x="111" y="70" type="curve" smooth="yes"/>
      <point x="103" y="39"/>
      <point x="88" y="34"/>
      <point x="69" y="34" type="curve" smooth="yes"/>
      <point x="59" y="34"/>
      <point x="34" y="41"/>
      <point x="-2" y="53" type="curve"/>
      <point x="-57" y="-128" type="line"/>
      <point x="-17" y="-136"/>
      <point x="43" y="-145"/>
    </contour>
    <contour>
      <point x="62" y="275" type="line"/>
      <point x="138" y="278"/>
      <point x="214" y="281"/>
      <point x="272" y="283" type="curve"/>
      <point x="316" y="283" type="line"/>
      <point x="372" y="281"/>
      <point x="448" y="278"/>
      <point x="522" y="275" type="curve"/>
      <point x="557" y="441" type="line"/>
      <point x="482" y="438"/>
      <point x="405" y="435"/>
      <point x="348" y="433" type="curve"/>
      <point x="304" y="433" type="line"/>
      <point x="247" y="435"/>
      <point x="172" y="438"/>
      <point x="97" y="441" type="curve"/>
    </contour>
  </outline>
</glyph>
<glyph name="jdotless" format="2">
  <advance width="306"/>
  <unicode hex="0237"/>
  <anchor x="69" y="-192" name="bottom"/>
  <anchor x="207" y="502" name="top"/>
  <outline>
    <contour>
      <point x="-103" y="-198" type="curve"/>
      <point x="104" y="-192" type="line"/>
      <point x="139" y="-150"/>
      <point x="213" y="-56"/>
      <point x="229" y="16" type="curve" smooth="yes"/>
      <point x="246" y="91"/>
      <point x="252" y="190"/>
      <point x="268" y="263" type="curve"/>
      <point x="300" y="373"/>
      <point x="318" y="433"/>
      <point x="338" y="502" type="curve"/>
      <point x="76" y="502" type="line"/>
      <point x="67" y="433"/>
      <point x="60" y="373"/>
      <point x="46" y="263" type="curve"/>
      <point x="35" y="213" type="line"/>
      <point x="-10" y="19" type="line"/>
      <point x="-42" y="-59"/>
      <point x="-73" y="-131"/>
    </contour>
  </outline>
</glyph>
<glyph name="ringhalfright" format="2">
  <advance width="201"/>
  <unicode hex="02BE"/>
  <outline>
    <contour>
      <point x="115" y="538" type="line"/>
      <point x="194" y="538"/>
      <point x="261" y="562"/>
      <point x="279" y="651" type="curve" smooth="yes"/>
      <point x="295" y="732"/>
      <point x="237" y="806"/>
      <point x="138" y="806" type="curve"/>
      <point x="132" y="722" type="line"/>
      <point x="161" y="718"/>
      <point x="183" y="693"/>
      <point x="178" y="667" type="curve" smooth="yes"/>
      <point x="172" y="638"/>
      <point x="152" y="626"/>
      <point x="122" y="623" type="curve"/>
    </contour>
  </outline>
</glyph>
<glyph name="verticallinemod" format="2">
  <advance width="230"/>
  <unicode hex="02C8"/>
  <outline>
    <contour>
      <point x="253" y="502" type="curve"/>
      <point x="84" y="502" type="line"/>
      <point x="98" y="592"/>
      <point x="112" y="684"/>
      <point x="127" y="779" type="curve"/>
      <point x="327" y="779" type="line"/>
      <point x="302" y="684"/>
      <point x="277" y="591"/>
    </contour>
  </outline>
</glyph>
<glyph name="gravecomb" format="2">
  <unicode hex="0300"/>
  <anchor x="353" y="502" name="_top"/>
  <anchor x="407" y="759" name="top"/>
  <outline>
    <contour>
      <point x="335" y="553" type="curve"/>
      <point x="480" y="555" type="line"/>
      <point x="464" y="629"/>
      <point x="448" y="702"/>
      <point x="432" y="776" type="curve"/>
      <point x="197" y="771" type="line"/>
      <point x="219" y="716"/>
      <point x="285" y="622"/>
    </contour>
  </outline>
</glyph>
<glyph name="tildecomb" format="2">
  <unicode hex="0303"/>
  <anchor x="353" y="502" name="_top"/>
  <anchor x="404" y="747" name="top"/>
  <outline>
    <contour>
      <point x="464" y="539" type="curve" smooth="yes"/>
      <point x="536" y="539"/>
      <point x="593" y="610"/>
      <point x="615" y="737" type="curve"/>
      <point x="508" y="737" type="line"/>
      <point x="496" y="717"/>
      <point x="478" y="693"/>
      <point x="463" y="690" type="curve"/>
      <point x="441" y="694"/>
      <point x="385" y="758"/>
      <point x="312" y="758" type="curve" smooth="yes"/>
      <point x="235" y="758"/>
      <point x="174" y="687"/>
      <point x="152" y="560" type="curve"/>
      <point x="258" y="560" type="line"/>
      <point x="270" y="578"/>
      <point x="292" y="604"/>
      <point x="308" y="607" type="curve"/>
      <point x="335" y="603"/>
      <point x="384" y="539"/>
    </contour>
  </outline>
</glyph>
<glyph name="ringcomb" format="2">
  <unicode hex="030A"/>
  <anchor x="353" y="502" name="_top"/>
  <anchor x="412" y="691" name="top"/>
  <outline>
    <contour>
      <point x="374" y="538" type="curve" smooth="yes"/>
      <point x="452" y="538"/>
      <point x="520" y="562"/>
      <point x="538" y="651" type="curve" smooth="yes"/>
      <point x="553" y="732"/>
      <point x="496" y="806"/>
      <point x="397" y="806" type="curve" smooth="yes"/>
      <point x="311" y="806"/>
      <point x="252" y="771"/>
      <point x="233" y="691" type="curve" smooth="yes"/>
      <point x="213" y="602"/>
      <point x="276" y="538"/>
    </contour>
    <contour>
      <point x="381" y="623" type="curve"/>
      <point x="350" y="626"/>
      <point x="329" y="649"/>
      <point x="336" y="680" type="curve" smooth="yes"/>
      <point x="341" y="704"/>
      <point x="361" y="718"/>
      <point x="391" y="722" type="curve"/>
      <point x="420" y="718"/>
      <point x="442" y="693"/>
      <point x="437" y="667" type="curve" smooth="yes"/>
      <point x="431" y="638"/>
      <point x="411" y="626"/>
    </contour>
  </outline>
</glyph>
<glyph name="horncomb" format="2">
  <unicode hex="031B"/>
  <anchor x="353" y="502" name="_topright"/>
  <outline>
    <contour>
      <point x="233" y="306" type="line"/>
      <point x="426" y="306"/>
      <point x="517" y="369"/>
      <point x="541" y="482" type="curve" smooth="yes"/>
      <point x="544" y="496"/>
      <point x="545" y="556"/>
      <point x="544" y="618" type="curve"/>
      <point x="387" y="610" type="line"/>
      <point x="384" y="576"/>
      <point x="381" y="545"/>
      <point x="376" y="498" type="curve"/>
      <point x="365" y="440"/>
      <point x="340" y="412"/>
      <point x="238" y="412" type="curve"/>
    </contour>
  </outline>
</glyph>
<glyph name="dotbelowcomb" format="2">
  <unicode hex="0323"/>
  <anchor x="247" y="0" name="_bottom"/>
  <anchor x="247" y="0" name="bottom"/>
  <outline>
    <contour>
      <point x="197" y="-251" type="curve" smooth="yes"/>
      <point x="283" y="-251"/>
      <point x="323" y="-232"/>
      <point x="341" y="-155" type="curve" smooth="yes"/>
      <point x="357" y="-87"/>
      <point x="326" y="-36"/>
      <point x="241" y="-36" type="curve" smooth="yes"/>
      <point x="155" y="-36"/>
      <point x="112" y="-60"/>
      <point x="97" y="-124" type="curve" smooth="yes"/>
      <point x="77" y="-211"/>
      <point x="111" y="-251"/>
    </contour>
  </outline>
</glyph>
<glyph name="ogonekcomb" format="2">
  <unicode hex="0328"/>
  <anchor x="247" y="0" name="_ogonek"/>
  <outline>
    <contour>
      <point x="143" y="-228" type="curve" smooth="yes"/>
      <point x="156" y="-228"/>
      <point x="181" y="-225"/>
      <point x="210" y="-220" type="curve"/>
      <point x="236" y="-93" type="line"/>
      <point x="224" y="-95"/>
      <point x="211" y="-98"/>
      <point x="201" y="-99" type="curve"/>
      <point x="172" y="-96"/>
      <point x="155" y="-86"/>
      <point x="159" y="-64" type="curve" smooth="yes"/>
      <point x="163" y="-41"/>
      <point x="199" y="-21"/>
      <point x="252" y="0" type="curve"/>
      <point x="216" y="41" type="line"/>
      <point x="102" y="27" type="line"/>
      <point x="93" y="-15" type="line"/>
      <point x="48" y="-33"/>
      <point x="2" y="-61"/>
      <point x="-7" y="-109" type="curve" smooth="yes"/>
      <point x="-18" y="-169"/>
      <point x="23" y="-228"/>
    </contour>
  </outline>
</glyph>
<glyph name="macronbelowcomb" format="2">
  <unicode hex="0331"/>
  <anchor x="247" y="0" name="_bottom"/>
  <anchor x="247" y="0" name="bottom"/>
  <outline>
    <contour>
      <point x="15" y="-219" type="line"/>
      <point x="72" y="-217"/>
      <point x="138" y="-214"/>
      <point x="203" y="-211" type="curve"/>
      <point x="267" y="-214"/>
      <point x="332" y="-217"/>
      <point x="387" y="-219" type="curve"/>
      <point x="424" y="-43" type="line"/>
      <point x="369" y="-45"/>
      <point x="302" y="-48"/>
      <point x="237" y="-51" type="curve"/>
      <point x="173" y="-48"/>
      <point x="107" y="-45"/>
      <point x="52" y="-43" type="curve"/>
    </contour>
  </outline>
</glyph>
<glyph name="slashlongcomb" format="2">
  <unicode hex="0338"/>
  <anchor x="307" y="357" name="_center"/>
  <outline>
    <contour>
      <point x="22" y="-96" type="line"/>
      <point x="94" y="-8"/>
      <point x="160" y="73"/>
      <point x="240" y="171" type="curve"/>
      <point x="467" y="432" type="line"/>
      <point x="552" y="523"/>
      <point x="622" y="598"/>
      <point x="704" y="686" type="curve"/>
      <point x="577" y="786" type="line"/>
      <point x="502" y="694"/>
      <point x="438" y="615"/>
      <point x="358" y="516" type="curve"/>
      <point x="136" y="261" type="line"/>
      <point x="50" y="169"/>
      <point x="-16" y="98"/>
      <point x="-98" y="10" type="curve"/>
    </contour>
  </outline>
</glyph>
<glyph name="Germandbls" format="2">
  <advance width="741"/>
  <unicode hex="1E9E"/>
  <outline>
    <contour>
      <point x="394" y="-6" type="curve" smooth="yes"/>
      <point x="607" y="-6"/>
      <point x="680" y="69"/>
      <point x="703" y="179" type="curve" smooth="yes"/>
      <point x="734" y="323"/>
      <point x="649" y="410"/>
      <point x="507" y="438" type="curve"/>
      <point x="488" y="347" type="line"/>
      <point x="590" y="402" type="line"/>
      <point x="629" y="421"/>
      <point x="668" y="440"/>
      <point x="703" y="457" type="curve"/>
      <point x="762" y="656" type="line"/>
      <point x="666" y="687"/>
      <point x="501" y="729"/>
      <point x="432" y="729" type="curve" smooth="yes"/>
      <point x="208" y="729"/>
      <point x="118" y="626"/>
      <point x="79" y="449" type="curve" smooth="yes"/>
      <point x="64" y="380"/>
      <point x="53" y="299"/>
      <point x="38" y="229" type="curve"/>
      <point x="11" y="137"/>
      <point x="-7" y="74"/>
      <point x="-29" y="0" type="curve"/>
      <point x="254" y="0" type="line"/>
      <point x="264" y="74"/>
      <point x="271" y="138"/>
      <point x="283" y="229" type="curve"/>
      <point x="325" y="428" type="line" smooth="yes"/>
      <point x="340" y="501"/>
      <point x="377" y="528"/>
      <point x="436" y="531" type="curve"/>
      <point x="472" y="528"/>
      <point x="515" y="512"/>
      <point x="566" y="487" type="curve"/>
      <point x="575" y="550" type="line"/>
      <point x="487" y="488" type="line"/>
      <point x="455" y="468"/>
      <point x="429" y="452"/>
      <point x="397" y="432" type="curve"/>
      <point x="369" y="294" type="line"/>
      <point x="432" y="284"/>
      <point x="460" y="259"/>
      <point x="453" y="226" type="curve" smooth="yes"/>
      <point x="447" y="198"/>
      <point x="417" y="182"/>
      <point x="365" y="179" type="curve"/>
      <point x="351" y="181"/>
      <point x="339" y="183"/>
      <point x="325" y="185" type="curve"/>
      <point x="286" y="0" type="line"/>
      <point x="303" y="-3"/>
      <point x="378" y="-6"/>
    </contour>
  </outline>
</glyph>
<glyph name="endash" format="2">
  <advance width="640"/>
  <unicode hex="2013"/>
  <outline>
    <contour>
      <point x="29" y="201" type="line"/>
      <point x="105" y="204"/>
      <point x="182" y="207"/>
      <point x="239" y="209" type="curve"/>
      <point x="383" y="209" type="line"/>
      <point x="440" y="207"/>
      <point x="515" y="204"/>
      <point x="589" y="201" type="curve"/>
      <point x="633" y="407" type="line"/>
      <point x="557" y="404"/>
      <point x="481" y="401"/>
      <point x="423" y="399" type="curve"/>
      <point x="279" y="399" type="line"/>
      <point x="223" y="401"/>
      <point x="147" y="404"/>
      <point x="73" y="407" type="curve"/>
    </contour>
  </outline>
</glyph>
<glyph name="emdash" format="2">
  <advance width="810"/>
  <unicode hex="2014"/>
  <outline>
    <contour>
      <point x="29" y="201" type="line"/>
      <point x="128" y="204"/>
      <point x="228" y="207"/>
      <point x="302" y="209" type="curve"/>
      <point x="490" y="209" type="line"/>
      <point x="564" y="207"/>
      <point x="662" y="204"/>
      <point x="759" y="201" type="curve"/>
      <point x="803" y="407" type="line"/>
      <point x="704" y="404"/>
      <point x="605" y="401"/>
      <point x="530" y="399" type="curve"/>
      <point x="342" y="399" type="line"/>
      <point x="269" y="401"/>
      <point x="170" y="404"/>
      <point x="73" y="407" type="curve"/>
    </contour>
  </outline>
</glyph>
<glyph name="dagger" format="2">
  <advance width="610"/>
  <unicode hex="2020"/>
  <outline>
    <contour>
      <point x="129" y="0" type="curve"/>
      <point x="375" y="0" type="line"/>
      <point x="392" y="109"/>
      <point x="407" y="204"/>
      <point x="427" y="333" type="curve"/>
      <point x="452" y="449" type="line"/>
      <point x="475" y="529"/>
      <point x="498" y="609"/>
      <point x="521" y="690" type="curve"/>
      <point x="275" y="690" type="line"/>
      <point x="264" y="609"/>
      <point x="253" y="528"/>
      <point x="242" y="449" type="curve"/>
      <point x="217" y="333" type="line"/>
      <point x="183" y="204"/>
      <point x="158" y="110"/>
    </contour>
    <contour>
      <point x="54" y="316" type="line"/>
      <point x="129" y="319"/>
      <point x="206" y="322"/>
      <point x="264" y="324" type="curve"/>
      <point x="378" y="324" type="line"/>
      <point x="434" y="322"/>
      <point x="509" y="319"/>
      <point x="584" y="316" type="curve"/>
      <point x="625" y="512" type="line"/>
      <point x="550" y="509"/>
      <point x="473" y="506"/>
      <point x="416" y="504" type="curve"/>
      <point x="302" y="504" type="line"/>
      <point x="245" y="506"/>
      <point x="170" y="509"/>
      <point x="95" y="512" type="curve"/>
    </contour>
  </outline>
</glyph>
<glyph name="daggerdbl" format="2">
  <advance width="610"/>
  <unicode hex="2021"/>
  <outline>
    <contour>
      <point x="129" y="0" type="curve"/>
      <point x="375" y="0" type="line"/>
      <point x="385" y="76"/>
      <point x="394" y="142"/>
      <point x="406" y="233" type="curve"/>
      <point x="452" y="449" type="line"/>
      <point x="475" y="529"/>
      <point x="498" y="609"/>
      <point x="521" y="690" type="curve"/>
      <point x="275" y="690" type="line"/>
      <point x="264" y="608"/>
      <point x="253" y="528"/>
      <point x="242" y="449" type="curve"/>
      <point x="196" y="233" type="line"/>
      <point x="170" y="142"/>
      <point x="151" y="77"/>
    </contour>
    <contour>
      <point x="69" y="386" type="line"/>
      <point x="144" y="389"/>
      <point x="221" y="392"/>
      <point x="278" y="394" type="curve"/>
      <point x="392" y="394" type="line"/>
      <point x="449" y="392"/>
      <point x="524" y="389"/>
      <point x="599" y="386" type="curve"/>
      <point x="638" y="572" type="line"/>
      <point x="563" y="569"/>
      <point x="486" y="566"/>
      <point x="429" y="564" type="curve"/>
      <point x="315" y="564" type="line"/>
      <point x="258" y="566"/>
      <point x="183" y="569"/>
      <point x="108" y="572" type="curve"/>
    </contour>
    <contour>
      <point x="16" y="136" type="line"/>
      <point x="91" y="139"/>
      <point x="168" y="142"/>
      <point x="225" y="144" type="curve"/>
      <point x="339" y="144" type="line"/>
      <point x="396" y="142"/>
      <point x="471" y="139"/>
      <point x="546" y="136" type="curve"/>
      <point x="585" y="322" type="line"/>
      <point x="509" y="319"/>
      <point x="433" y="316"/>
      <point x="375" y="314" type="curve"/>
      <point x="261" y="314" type="line"/>
      <point x="205" y="316"/>
      <point x="129" y="319"/>
      <point x="55" y="322" type="curve"/>
    </contour>
  </outline>
</glyph>
<glyph name="fraction" format="2">
  <advance width="332"/>
  <unicode hex="2044"/>
  <outline>
    <contour>
      <point x="-191" y="0" type="curve"/>
      <point x="65" y="0" type="line"/>
      <point x="112" y="74"/>
      <point x="152" y="137"/>
      <point x="211" y="230" type="curve"/>
      <point x="384" y="477" type="line"/>
      <point x="457" y="570"/>
      <point x="509" y="638"/>
      <point x="568" y="713" type="curve"/>
      <point x="314" y="713" type="line"/>
      <point x="265" y="638"/>
      <point x="222" y="570"/>
      <point x="162" y="477" type="curve"/>
      <point x="-11" y="230" type="line"/>
      <point x="-79" y="143"/>
      <point x="-133" y="74"/>
    </contour>
  </outline>
</glyph>
<glyph name="franc" format="2">
  <advance width="606"/>
  <unicode hex="20A3"/>
  <outline>
    <contour>
      <point x="25" y="0" type="curve"/>
      <point x="290" y="0" type="line"/>
      <point x="299" y="69"/>
      <point x="308" y="137"/>
      <point x="319" y="222" type="curve"/>
      <point x="362" y="425" type="line"/>
      <point x="387" y="516"/>
      <point x="405" y="582"/>
      <point x="424" y="652" type="curve"/>
      <point x="418" y="690" type="line"/>
      <point x="171" y="690" type="line"/>
      <point x="162" y="622"/>
      <point x="153" y="553"/>
      <point x="141" y="462" type="curve"/>
      <point x="90" y="222" type="line"/>
      <point x="65" y="136"/>
      <point x="46" y="72"/>
    </contour>
    <contour>
      <point x="333" y="498" type="line"/>
      <point x="435" y="498" type="line"/>
      <point x="512" y="489"/>
      <point x="569" y="482"/>
      <point x="621" y="476" type="curve"/>
      <point x="666" y="690" type="line"/>
      <point x="373" y="690" type="line"/>
    </contour>
    <contour>
      <point x="269" y="272" type="line"/>
      <point x="385" y="272" type="line"/>
      <point x="458" y="268"/>
      <point x="511" y="265"/>
      <point x="564" y="262" type="curve"/>
      <point x="601" y="436" type="line"/>
      <point x="550" y="433"/>
      <point x="496" y="430"/>
      <point x="418" y="426" type="curve"/>
      <point x="302" y="426" type="line"/>
    </contour>
    <contour>
      <point x="-12" y="77" type="line"/>
      <point x="64" y="80"/>
      <point x="140" y="83"/>
      <point x="198" y="85" type="curve"/>
      <point x="242" y="85" type="line"/>
      <point x="298" y="83"/>
      <point x="374" y="80"/>
      <point x="448" y="77" type="curve"/>
      <point x="479" y="223" type="line"/>
      <point x="403" y="220"/>
      <point x="327" y="217"/>
      <point x="269" y="215" type="curve"/>
      <point x="225" y="215" type="line"/>
      <point x="169" y="217"/>
      <point x="93" y="220"/>
      <point x="19" y="223" type="curve"/>
    </contour>
  </outline>
</glyph>
<glyph name="lira" format="2">
  <advance width="623"/>
  <unicode hex="20A4"/>
  <outline>
    <contour>
      <point x="-18" y="0" type="line"/>
      <point x="540" y="0" type="line"/>
      <point x="587" y="221" type="line"/>
      <point x="513" y="215"/>
      <point x="410" y="207"/>
      <point x="322" y="200" type="curve"/>
      <point x="195" y="200" type="line"/>
      <point x="254" y="170" type="line"/>
      <point x="330" y="262"/>
      <point x="348" y="290"/>
      <point x="354" y="319" type="curve" smooth="yes"/>
      <point x="375" y="424" type="line" smooth="yes"/>
      <point x="387" y="482"/>
      <point x="423" y="509"/>
      <point x="472" y="513" type="curve"/>
      <point x="482" y="513"/>
      <point x="544" y="495"/>
      <point x="599" y="473" type="curve"/>
      <point x="662" y="674" type="line"/>
      <point x="585" y="691"/>
      <point x="479" y="706"/>
      <point x="445" y="706" type="curve" smooth="yes"/>
      <point x="272" y="706"/>
      <point x="171" y="614"/>
      <point x="138" y="453" type="curve" smooth="yes"/>
      <point x="126" y="395"/>
      <point x="117" y="311"/>
      <point x="102" y="239" type="curve"/>
      <point x="97" y="220"/>
      <point x="80" y="195"/>
      <point x="7" y="120" type="curve"/>
    </contour>
    <contour>
      <point x="68" y="367" type="line"/>
      <point x="143" y="368"/>
      <point x="219" y="369"/>
      <point x="276" y="370" type="curve"/>
      <point x="320" y="370" type="line"/>
      <point x="377" y="369"/>
      <point x="453" y="368"/>
      <point x="528" y="367" type="curve"/>
      <point x="549" y="468" type="line"/>
      <point x="473" y="465"/>
      <point x="397" y="462"/>
      <point x="339" y="460" type="curve"/>
      <point x="295" y="460" type="line"/>
      <point x="239" y="462"/>
      <point x="163" y="465"/>
      <point x="89" y="468" type="curve"/>
    </contour>
    <contour>
      <point x="39" y="233" type="line"/>
      <point x="115" y="236"/>
      <point x="191" y="239"/>
      <point x="249" y="241" type="curve"/>
      <point x="293" y="241" type="line"/>
      <point x="349" y="239"/>
      <point x="425" y="236"/>
      <point x="499" y="233" type="curve"/>
      <point x="521" y="334" type="line"/>
      <point x="445" y="333"/>
      <point x="369" y="332"/>
      <point x="312" y="331" type="curve"/>
      <point x="268" y="331" type="line"/>
      <point x="211" y="332"/>
      <point x="135" y="333"/>
      <point x="61" y="334" type="curve"/>
    </contour>
  </outline>
</glyph>
<glyph name="dong" format="2">
  <advance width="578"/>
  <unicode hex="20AB"/>
  <outline>
    <contour>
      <point x="180" y="133" type="curve" smooth="yes"/>
      <point x="209" y="133"/>
      <point x="254" y="158"/>
      <point x="300" y="194" type="curve"/>
      <point x="311" y="194" type="line"/>
      <point x="310" y="146" type="line"/>
      <point x="479" y="146" type="line"/>
      <point x="485" y="199"/>
      <point x="491" y="253"/>
      <point x="498" y="317" type="curve"/>
      <point x="545" y="539" type="line"/>
      <point x="562" y="619"/>
      <point x="576" y="684"/>
      <point x="589" y="746" type="curve"/>
      <point x="386" y="733" type="line"/>
      <point x="378" y="666"/>
      <point x="371" y="605"/>
      <point x="363" y="540" type="curve"/>
      <point x="358" y="512" type="line"/>
      <point x="345" y="512" type="line"/>
      <point x="309" y="542"/>
      <point x="271" y="561"/>
      <point x="244" y="561" type="curve" smooth="yes"/>
      <point x="147" y="561"/>
      <point x="83" y="475"/>
      <point x="59" y="362" type="curve" smooth="yes"/>
      <point x="33" y="238"/>
      <point x="72" y="133"/>
    </contour>
    <contour>
      <point x="-19" y="-8" type="line"/>
      <point x="57" y="-5"/>
      <point x="134" y="-2"/>
      <point x="191" y="0" type="curve"/>
      <point x="235" y="0" type="line"/>
      <point x="292" y="-2"/>
      <point x="367" y="-5"/>
      <point x="441" y="-8" type="curve"/>
      <point x="468" y="108" type="line"/>
      <point x="392" y="105"/>
      <point x="316" y="102"/>
      <point x="258" y="100" type="curve"/>
      <point x="214" y="100" type="line"/>
      <point x="158" y="102"/>
      <point x="82" y="105"/>
      <point x="8" y="108" type="curve"/>
    </contour>
    <contour>
      <point x="276" y="284" type="curve"/>
      <point x="244" y="287"/>
      <point x="236" y="323"/>
      <point x="242" y="347" type="curve" smooth="yes"/>
      <point x="251" y="382"/>
      <point x="271" y="404"/>
      <point x="302" y="407" type="curve"/>
      <point x="316" y="405"/>
      <point x="327" y="400"/>
      <point x="333" y="394" type="curve"/>
      <point x="314" y="305" type="line"/>
      <point x="304" y="294"/>
      <point x="290" y="287"/>
    </contour>
    <contour>
      <point x="242" y="588" type="line"/>
      <point x="310" y="591"/>
      <point x="380" y="594"/>
      <point x="432" y="596" type="curve"/>
      <point x="447" y="596" type="line"/>
      <point x="499" y="594"/>
      <point x="567" y="591"/>
      <point x="635" y="588" type="curve"/>
      <point x="657" y="694" type="line"/>
      <point x="589" y="691"/>
      <point x="519" y="688"/>
      <point x="466" y="686" type="curve"/>
      <point x="451" y="686" type="line"/>
      <point x="400" y="688"/>
      <point x="332" y="691"/>
      <point x="264" y="694" type="curve"/>
    </contour>
  </outline>
</glyph>
<glyph name="peso" format="2">
  <advance width="810"/>
  <unicode hex="20B1"/>
  <outline>
    <contour>
      <point x="308" y="205" type="line"/>
      <point x="345" y="204"/>
      <point x="407" y="202"/>
      <point x="454" y="201" type="curve"/>
      <point x="617" y="201"/>
      <point x="699" y="278"/>
      <point x="731" y="426" type="curve" smooth="yes"/>
      <point x="772" y="616"/>
      <point x="686" y="696"/>
      <point x="511" y="696" type="curve"/>
      <point x="376" y="693"/>
      <point x="265" y="691"/>
      <point x="192" y="690" type="curve"/>
      <point x="387" y="514" type="line"/>
      <point x="459" y="514" type="line" smooth="yes"/>
      <point x="490" y="514"/>
      <point x="505" y="485"/>
      <point x="494" y="434" type="curve" smooth="yes"/>
      <point x="483" y="382"/>
      <point x="465" y="369"/>
      <point x="430" y="369" type="curve" smooth="yes"/>
      <point x="343" y="369" type="line"/>
    </contour>
    <contour>
      <point x="45" y="0" type="curve"/>
      <point x="310" y="0" type="line"/>
      <point x="319" y="69"/>
      <point x="328" y="137"/>
      <point x="339" y="222" type="curve"/>
      <point x="382" y="425" type="line"/>
      <point x="407" y="516"/>
      <point x="425" y="582"/>
      <point x="444" y="652" type="curve"/>
      <point x="191" y="690" type="line"/>
      <point x="182" y="622"/>
      <point x="173" y="553"/>
      <point x="161" y="462" type="curve"/>
      <point x="110" y="222" type="line"/>
      <point x="85" y="136"/>
      <point x="66" y="72"/>
    </contour>
    <contour>
      <point x="36" y="304" type="line"/>
      <point x="111" y="307"/>
      <point x="187" y="310"/>
      <point x="243" y="312" type="curve"/>
      <point x="266" y="422" type="line"/>
      <point x="205" y="422"/>
      <point x="135" y="422"/>
      <point x="61" y="422" type="curve"/>
    </contour>
    <contour>
      <point x="70" y="461" type="line"/>
      <point x="144" y="461"/>
      <point x="214" y="461"/>
      <point x="275" y="461" type="curve"/>
      <point x="298" y="571" type="line"/>
      <point x="242" y="573"/>
      <point x="168" y="576"/>
      <point x="95" y="579" type="curve"/>
    </contour>
    <contour>
      <point x="590" y="312" type="line"/>
      <point x="647" y="310"/>
      <point x="722" y="307"/>
      <point x="796" y="304" type="curve"/>
      <point x="821" y="422" type="line"/>
      <point x="746" y="422"/>
      <point x="675" y="422"/>
      <point x="613" y="422" type="curve"/>
    </contour>
    <contour>
      <point x="622" y="461" type="line"/>
      <point x="684" y="461"/>
      <point x="755" y="461"/>
      <point x="830" y="461" type="curve"/>
      <point x="855" y="579" type="line"/>
      <point x="779" y="576"/>
      <point x="702" y="573"/>
      <point x="645" y="571" type="curve"/>
    </contour>
  </outline>
</glyph>
<glyph name="cedi" format="2">
  <advance width="652"/>
  <unicode hex="20B5"/>
  <outline>
    <contour>
      <point x="366" y="-15" type="curve" smooth="yes"/>
      <point x="398" y="-15"/>
      <point x="510" y="1"/>
      <point x="561" y="15" type="curve"/>
      <point x="599" y="240" type="line"/>
      <point x="537" y="213"/>
      <point x="437" y="174"/>
      <point x="414" y="174" type="curve"/>
      <point x="304" y="178"/>
      <point x="270" y="265"/>
      <point x="289" y="358" type="curve" smooth="yes"/>
      <point x="312" y="468"/>
      <point x="382" y="506"/>
      <point x="453" y="510" type="curve"/>
      <point x="468" y="510"/>
      <point x="558" y="477"/>
      <point x="636" y="441" type="curve"/>
      <point x="698" y="654" type="line"/>
      <point x="613" y="682"/>
      <point x="495" y="706"/>
      <point x="457" y="706" type="curve" smooth="yes"/>
      <point x="222" y="706"/>
      <point x="94" y="591"/>
      <point x="52" y="387" type="curve" smooth="yes"/>
      <point x="6" y="167"/>
      <point x="120" y="-15"/>
    </contour>
    <contour>
      <point x="213" y="-137" type="curve"/>
      <point x="396" y="-137" type="line"/>
      <point x="410" y="-58"/>
      <point x="425" y="27"/>
      <point x="436" y="93" type="curve"/>
      <point x="270" y="93" type="line"/>
      <point x="254" y="28"/>
      <point x="233" y="-57"/>
    </contour>
    <contour>
      <point x="378" y="604" type="curve"/>
      <point x="546" y="604" type="line"/>
      <point x="560" y="662"/>
      <point x="578" y="735"/>
      <point x="595" y="803" type="curve"/>
      <point x="413" y="803" type="line"/>
      <point x="401" y="735"/>
      <point x="389" y="664"/>
    </contour>
  </outline>
</glyph>
<glyph name="liraTurkish" format="2">
  <advance width="756"/>
  <unicode hex="20BA"/>
  <outline>
    <contour>
      <point x="55" y="0" type="curve"/>
      <point x="267" y="0" type="line"/>
      <point x="326" y="38" type="line"/>
      <point x="338" y="109"/>
      <point x="347" y="171"/>
      <point x="362" y="258" type="curve"/>
      <point x="405" y="463" type="line"/>
      <point x="431" y="552"/>
      <point x="450" y="618"/>
      <point x="471" y="690" type="curve"/>
      <point x="201" y="690" type="line"/>
      <point x="192" y="621"/>
      <point x="183" y="553"/>
      <point x="171" y="463" type="curve"/>
      <point x="119" y="218" type="line"/>
      <point x="94" y="133"/>
      <point x="76" y="71"/>
    </contour>
    <contour>
      <point x="267" y="0" type="line"/>
      <point x="335" y="0" type="line" smooth="yes"/>
      <point x="518" y="0"/>
      <point x="634" y="71"/>
      <point x="703" y="223" type="curve"/>
      <point x="721" y="273"/>
      <point x="741" y="330"/>
      <point x="760" y="393" type="curve"/>
      <point x="518" y="393" type="line"/>
      <point x="510" y="360"/>
      <point x="503" y="331"/>
      <point x="497" y="306" type="curve"/>
      <point x="470" y="232"/>
      <point x="426" y="187"/>
      <point x="354" y="187" type="curve" smooth="yes"/>
      <point x="306" y="187" type="line"/>
    </contour>
    <contour>
      <point x="67" y="227" type="line"/>
      <point x="140" y="260"/>
      <point x="211" y="292"/>
      <point x="271" y="319" type="curve"/>
      <point x="367" y="358" type="line"/>
      <point x="430" y="381"/>
      <point x="502" y="407"/>
      <point x="576" y="434" type="curve"/>
      <point x="552" y="530" type="line"/>
      <point x="479" y="499"/>
      <point x="408" y="469"/>
      <point x="346" y="443" type="curve"/>
      <point x="251" y="404" type="line"/>
      <point x="189" y="380"/>
      <point x="118" y="352"/>
      <point x="43" y="323" type="curve"/>
    </contour>
    <contour>
      <point x="94" y="375" type="line"/>
      <point x="168" y="406"/>
      <point x="238" y="436"/>
      <point x="300" y="462" type="curve"/>
      <point x="396" y="501" type="line"/>
      <point x="460" y="526"/>
      <point x="530" y="553"/>
      <point x="604" y="582" type="curve"/>
      <point x="581" y="678" type="line"/>
      <point x="507" y="645"/>
      <point x="437" y="613"/>
      <point x="375" y="586" type="curve"/>
      <point x="280" y="547" type="line"/>
      <point x="217" y="524"/>
      <point x="145" y="498"/>
      <point x="71" y="471" type="curve"/>
    </contour>
  </outline>
</glyph>
<glyph name="ruble" format="2">
  <advance width="693"/>
  <unicode hex="20BD"/>
  <outline>
    <contour>
      <point x="302" y="272" type="line"/>
      <point x="339" y="271"/>
      <point x="401" y="269"/>
      <point x="448" y="268" type="curve"/>
      <point x="611" y="268"/>
      <point x="690" y="329"/>
      <point x="719" y="464" type="curve" smooth="yes"/>
      <point x="753" y="621"/>
      <point x="666" y="696"/>
      <point x="491" y="696" type="curve"/>
      <point x="348" y="693"/>
      <point x="230" y="691"/>
      <point x="172" y="690" type="curve"/>
      <point x="371" y="531" type="line"/>
      <point x="443" y="531" type="line" smooth="yes"/>
      <point x="474" y="531"/>
      <point x="487" y="506"/>
      <point x="480" y="472" type="curve" smooth="yes"/>
      <point x="474" y="444"/>
      <point x="455" y="420"/>
      <point x="420" y="420" type="curve" smooth="yes"/>
      <point x="333" y="420" type="line"/>
    </contour>
    <contour>
      <point x="25" y="0" type="curve"/>
      <point x="290" y="0" type="line"/>
      <point x="299" y="69"/>
      <point x="308" y="137"/>
      <point x="319" y="222" type="curve"/>
      <point x="362" y="425" type="line"/>
      <point x="387" y="516"/>
      <point x="405" y="582"/>
      <point x="424" y="652" type="curve"/>
      <point x="171" y="690" type="line"/>
      <point x="162" y="622"/>
      <point x="153" y="553"/>
      <point x="141" y="462" type="curve"/>
      <point x="90" y="222" type="line"/>
      <point x="65" y="136"/>
      <point x="46" y="72"/>
    </contour>
    <contour>
      <point x="-12" y="77" type="line"/>
      <point x="64" y="80"/>
      <point x="140" y="83"/>
      <point x="198" y="85" type="curve"/>
      <point x="262" y="85" type="line"/>
      <point x="318" y="83"/>
      <point x="394" y="80"/>
      <point x="468" y="77" type="curve"/>
      <point x="498" y="218" type="line"/>
      <point x="423" y="217"/>
      <point x="348" y="216"/>
      <point x="289" y="215" type="curve"/>
      <point x="225" y="215" type="line"/>
      <point x="169" y="217"/>
      <point x="93" y="220"/>
      <point x="19" y="223" type="curve"/>
    </contour>
  </outline>
</glyph>
<glyph name="emptyset" format="2">
  <advance width="641"/>
  <unicode hex="2205"/>
  <outline>
    <contour>
      <point x="119" y="-34" type="line"/>
      <point x="174" y="34"/>
      <point x="223" y="93"/>
      <point x="282" y="166" type="curve"/>
      <point x="452" y="362" type="line"/>
      <point x="516" y="431"/>
      <point x="566" y="486"/>
      <point x="628" y="553" type="curve"/>
      <point x="537" y="628" type="line"/>
      <point x="481" y="559"/>
      <point x="432" y="499"/>
      <point x="373" y="426" type="curve"/>
      <point x="207" y="235" type="line"/>
      <point x="141" y="165"/>
      <point x="93" y="114"/>
      <point x="31" y="48" type="curve"/>
    </contour>
    <contour>
      <point x="311" y="22" type="curve" smooth="yes"/>
      <point x="474" y="22"/>
      <point x="582" y="91"/>
      <point x="616" y="254" type="curve" smooth="yes"/>
      <point x="651" y="420"/>
      <point x="535" y="572"/>
      <point x="348" y="572" type="curve" smooth="yes"/>
      <point x="185" y="572"/>
      <point x="79" y="503"/>
      <point x="44" y="340" type="curve" smooth="yes"/>
      <point x="8" y="174"/>
      <point x="124" y="22"/>
    </contour>
    <contour>
      <point x="323" y="174" type="curve"/>
      <point x="242" y="180"/>
      <point x="194" y="239"/>
      <point x="212" y="317" type="curve" smooth="yes"/>
      <point x="225" y="375"/>
      <point x="263" y="415"/>
      <point x="339" y="421" type="curve"/>
      <point x="420" y="415"/>
      <point x="463" y="348"/>
      <point x="450" y="280" type="curve" smooth="yes"/>
      <point x="436" y="209"/>
      <point x="394" y="181"/>
    </contour>
  </outline>
</glyph>
<glyph name="product" format="2">
  <advance width="841"/>
  <unicode hex="220F"/>
  <outline>
    <contour>
      <point x="370" y="-192" type="curve"/>
      <point x="653" y="-192" type="line"/>
      <point x="667" y="-96"/>
      <point x="680" y="-7"/>
      <point x="695" y="96" type="curve"/>
      <point x="754" y="373" type="line"/>
      <point x="784" y="481"/>
      <point x="809" y="570"/>
      <point x="835" y="664" type="curve"/>
      <point x="845" y="713" type="line"/>
      <point x="562" y="713" type="line"/>
      <point x="552" y="664" type="line"/>
      <point x="538" y="569"/>
      <point x="525" y="481"/>
      <point x="509" y="373" type="curve"/>
      <point x="450" y="96" type="line"/>
      <point x="421" y="-9"/>
      <point x="395" y="-102"/>
    </contour>
    <contour>
      <point x="0" y="-192" type="curve"/>
      <point x="283" y="-192" type="line"/>
      <point x="297" y="-96"/>
      <point x="310" y="-7"/>
      <point x="325" y="96" type="curve"/>
      <point x="384" y="373" type="line"/>
      <point x="414" y="481"/>
      <point x="439" y="570"/>
      <point x="465" y="664" type="curve"/>
      <point x="475" y="713" type="line"/>
      <point x="192" y="713" type="line"/>
      <point x="182" y="664" type="line"/>
      <point x="168" y="569"/>
      <point x="155" y="481"/>
      <point x="139" y="373" type="curve"/>
      <point x="80" y="96" type="line"/>
      <point x="51" y="-9"/>
      <point x="25" y="-102"/>
    </contour>
    <contour>
      <point x="80" y="486" type="line"/>
      <point x="129" y="493"/>
      <point x="182" y="501"/>
      <point x="254" y="511" type="curve"/>
      <point x="697" y="511" type="line"/>
      <point x="765" y="501"/>
      <point x="814" y="493"/>
      <point x="861" y="486" type="curve"/>
      <point x="909" y="713" type="line"/>
      <point x="128" y="713" type="line"/>
    </contour>
  </outline>
</glyph>
<glyph name="summation" format="2">
  <advance width="694"/>
  <unicode hex="2211"/>
  <outline>
    <contour>
      <point x="-64" y="-192" type="line"/>
      <point x="560" y="-192" type="line"/>
      <point x="608" y="35" type="line"/>
      <point x="547" y="28"/>
      <point x="452" y="17"/>
      <point x="386" y="9" type="curve"/>
      <point x="266" y="9" type="line"/>
      <point x="262" y="-61" type="line"/>
      <point x="370" y="59" type="line"/>
      <point x="441" y="130"/>
      <point x="514" y="204"/>
      <point x="584" y="274" type="curve"/>
      <point x="537" y="338"/>
      <point x="487" y="405"/>
      <point x="439" y="470" type="curve"/>
      <point x="368" y="581" type="line"/>
      <point x="366" y="512" type="line"/>
      <point x="501" y="512" type="line"/>
      <point x="561" y="503"/>
      <point x="626" y="493"/>
      <point x="699" y="482" type="curve"/>
      <point x="748" y="713" type="line"/>
      <point x="148" y="713" type="line"/>
      <point x="110" y="532" type="line"/>
      <point x="160" y="466"/>
      <point x="210" y="400"/>
      <point x="260" y="334" type="curve"/>
      <point x="355" y="192" type="line"/>
      <point x="359" y="371" type="line"/>
      <point x="222" y="219" type="line"/>
      <point x="146" y="139"/>
      <point x="37" y="25"/>
      <point x="-34" y="-49" type="curve"/>
    </contour>
  </outline>
</glyph>
<glyph name="minus" format="2">
  <advance width="590"/>
  <unicode hex="2212"/>
  <outline>
    <contour>
      <point x="30" y="206" type="line"/>
      <point x="106" y="209"/>
      <point x="183" y="212"/>
      <point x="240" y="214" type="curve"/>
      <point x="334" y="214" type="line"/>
      <point x="391" y="212"/>
      <point x="466" y="209"/>
      <point x="540" y="206" type="curve"/>
      <point x="584" y="412" type="line"/>
      <point x="509" y="409"/>
      <point x="432" y="406"/>
      <point x="375" y="404" type="curve"/>
      <point x="281" y="404" type="line"/>
      <point x="224" y="406"/>
      <point x="149" y="409"/>
      <point x="74" y="412" type="curve"/>
    </contour>
  </outline>
</glyph>
<glyph name="lessequal" format="2">
  <advance width="590"/>
  <unicode hex="2264"/>
  <guideline x="517" y="95" angle="77.8229"/>
  <outline>
    <contour>
      <point x="540" y="203" type="curve"/>
      <point x="585" y="413" type="line"/>
      <point x="540" y="425"/>
      <point x="496" y="437"/>
      <point x="451" y="449" type="curve"/>
      <point x="382" y="473" type="line"/>
      <point x="385" y="489" type="line"/>
      <point x="463" y="511" type="line"/>
      <point x="513" y="522"/>
      <point x="563" y="534"/>
      <point x="613" y="545" type="curve"/>
      <point x="661" y="775" type="line"/>
      <point x="578" y="744"/>
      <point x="503" y="716"/>
      <point x="436" y="691" type="curve"/>
      <point x="335" y="658" type="line"/>
      <point x="269" y="639"/>
      <point x="193" y="617"/>
      <point x="113" y="594" type="curve"/>
      <point x="68" y="384" type="line"/>
      <point x="138" y="361"/>
      <point x="205" y="339"/>
      <point x="263" y="320" type="curve"/>
      <point x="350" y="287" type="line"/>
      <point x="406" y="262"/>
      <point x="469" y="234"/>
    </contour>
    <contour>
      <point x="-15" y="-8" type="line"/>
      <point x="61" y="-5"/>
      <point x="137" y="-2"/>
      <point x="195" y="0" type="curve"/>
      <point x="289" y="0" type="line"/>
      <point x="345" y="-2"/>
      <point x="421" y="-5"/>
      <point x="495" y="-8" type="curve"/>
      <point x="539" y="198" type="line"/>
      <point x="463" y="195"/>
      <point x="386" y="192"/>
      <point x="329" y="190" type="curve"/>
      <point x="235" y="190" type="line"/>
      <point x="178" y="192"/>
      <point x="103" y="195"/>
      <point x="29" y="198" type="curve"/>
    </contour>
  </outline>
</glyph>
<glyph name="lozenge" format="2">
  <advance width="658"/>
  <unicode hex="25CA"/>
  <outline>
    <contour>
      <point x="194" y="0" type="curve"/>
      <point x="490" y="0" type="line"/>
      <point x="538" y="104"/>
      <point x="588" y="209"/>
      <point x="636" y="313" type="curve"/>
      <point x="588" y="417"/>
      <point x="538" y="522"/>
      <point x="490" y="626" type="curve"/>
      <point x="194" y="626" type="line"/>
      <point x="146" y="522"/>
      <point x="96" y="417"/>
      <point x="48" y="313" type="curve"/>
      <point x="96" y="209"/>
      <point x="146" y="104"/>
    </contour>
    <contour>
      <point x="335" y="153" type="line"/>
      <point x="307" y="206"/>
      <point x="280" y="260"/>
      <point x="252" y="313" type="curve"/>
      <point x="280" y="366"/>
      <point x="307" y="420"/>
      <point x="335" y="473" type="curve"/>
      <point x="349" y="473" type="line"/>
      <point x="377" y="420"/>
      <point x="404" y="366"/>
      <point x="432" y="313" type="curve"/>
      <point x="404" y="260"/>
      <point x="377" y="206"/>
      <point x="349" y="153" type="curve"/>
    </contour>
  </outline>
</glyph>
<glyph name="H.bar" format="2">
  <advance width="761"/>
  <anchor x="328" y="0" name="bottom"/>
  <anchor x="403" y="357" name="center"/>
  <anchor x="478" y="713" name="top"/>
  <anchor x="140" y="713" name="topleft"/>
  <outline>
    <contour>
      <point x="392" y="0" type="curve"/>
      <point x="676" y="0" type="line"/>
      <point x="685" y="72"/>
      <point x="693" y="136"/>
      <point x="705" y="229" type="curve"/>
      <point x="757" y="474" type="line"/>
      <point x="785" y="572"/>
      <point x="804" y="636"/>
      <point x="826" y="713" type="curve"/>
      <point x="542" y="713" type="line"/>
      <point x="532" y="636"/>
      <point x="524" y="573"/>
      <point x="511" y="474" type="curve"/>
      <point x="459" y="229" type="line"/>
      <point x="432" y="137"/>
      <point x="414" y="74"/>
    </contour>
    <contour>
      <point x="-21" y="0" type="curve"/>
      <point x="263" y="0" type="line"/>
      <point x="272" y="72"/>
      <point x="280" y="136"/>
      <point x="292" y="229" type="curve"/>
      <point x="344" y="474" type="line"/>
      <point x="372" y="572"/>
      <point x="391" y="636"/>
      <point x="413" y="713" type="curve"/>
      <point x="129" y="713" type="line"/>
      <point x="119" y="636"/>
      <point x="111" y="573"/>
      <point x="98" y="474" type="curve"/>
      <point x="46" y="229" type="line"/>
      <point x="19" y="137"/>
      <point x="1" y="74"/>
    </contour>
    <contour>
      <point x="232" y="231" type="line"/>
      <point x="522" y="231" type="line"/>
      <point x="562" y="423" type="line"/>
      <point x="272" y="423" type="line"/>
    </contour>
  </outline>
</glyph>
<glyph name="_notequal" format="2">
  <advance width="590"/>
  <outline>
    <contour>
      <point x="234" y="-32" type="line"/>
      <point x="266" y="42"/>
      <point x="299" y="119"/>
      <point x="322" y="172" type="curve"/>
      <point x="435" y="408" type="line"/>
      <point x="463" y="463"/>
      <point x="501" y="534"/>
      <point x="538" y="606" type="curve"/>
      <point x="379" y="649" type="line"/>
      <point x="347" y="576"/>
      <point x="316" y="503"/>
      <point x="291" y="447" type="curve"/>
      <point x="178" y="211" type="line"/>
      <point x="151" y="158"/>
      <point x="112" y="83"/>
      <point x="75" y="11" type="curve"/>
    </contour>
  </outline>
</glyph>
<glyph name="_strokeshortcomb.Tbar" format="2">
  <advance width="735"/>
  <anchor x="390.531" y="357" name="_center"/>
  <outline>
    <contour>
      <point x="150" y="261" type="line"/>
      <point x="220" y="265"/>
      <point x="288" y="268"/>
      <point x="346" y="271" type="curve"/>
      <point x="398" y="271" type="line"/>
      <point x="457" y="268"/>
      <point x="522" y="264"/>
      <point x="590" y="261" type="curve"/>
      <point x="630" y="452" type="line"/>
      <point x="562" y="449"/>
      <point x="494" y="445"/>
      <point x="434" y="442" type="curve"/>
      <point x="382" y="442" type="line"/>
      <point x="324" y="445"/>
      <point x="259" y="449"/>
      <point x="190" y="452" type="curve"/>
    </contour>
  </outline>
</glyph>
<glyph name="brevecomb_tildecomb.case" format="2">
  <anchor x="350.791" y="502" name="_top"/>
  <outline>
    <contour>
      <point x="380" y="538" type="curve" smooth="yes"/>
      <point x="524" y="538"/>
      <point x="583" y="598"/>
      <point x="608" y="722" type="curve"/>
      <point x="466" y="722" type="line"/>
      <point x="464" y="701"/>
      <point x="443" y="673"/>
      <point x="390" y="668" type="curve"/>
      <point x="339" y="673"/>
      <point x="324" y="697"/>
      <point x="330" y="728" type="curve"/>
      <point x="185" y="722" type="line"/>
      <point x="161" y="603"/>
      <point x="238" y="538"/>
    </contour>
    <contour>
      <point x="496" y="750" type="curve" smooth="yes"/>
      <point x="562" y="750"/>
      <point x="614" y="812"/>
      <point x="634" y="922" type="curve"/>
      <point x="536" y="922" type="line"/>
      <point x="525" y="905"/>
      <point x="509" y="884"/>
      <point x="495" y="882" type="curve"/>
      <point x="475" y="885"/>
      <point x="424" y="941"/>
      <point x="357" y="941" type="curve" smooth="yes"/>
      <point x="287" y="941"/>
      <point x="231" y="879"/>
      <point x="211" y="769" type="curve"/>
      <point x="308" y="769" type="line"/>
      <point x="319" y="784"/>
      <point x="339" y="807"/>
      <point x="354" y="809" type="curve"/>
      <point x="378" y="806"/>
      <point x="423" y="750"/>
    </contour>
  </outline>
</glyph>
<glyph name="circumflexcomb.case" format="2">
  <anchor x="353" y="502" name="_top"/>
  <anchor x="404" y="745" name="top"/>
  <outline>
    <contour>
      <point x="446" y="553" type="curve"/>
      <point x="580" y="555" type="line"/>
      <point x="561" y="621"/>
      <point x="543" y="687"/>
      <point x="524" y="754" type="curve"/>
      <point x="303" y="754" type="line"/>
      <point x="326" y="703"/>
      <point x="394" y="617"/>
    </contour>
    <contour>
      <point x="147" y="554" type="curve"/>
      <point x="293" y="554" type="line"/>
      <point x="362" y="617"/>
      <point x="457" y="704"/>
      <point x="495" y="754" type="curve"/>
      <point x="276" y="754" type="line"/>
      <point x="233" y="688"/>
      <point x="191" y="622"/>
    </contour>
  </outline>
</glyph>
<glyph name="circumflexcomb_acutecomb" format="2">
  <anchor x="353" y="502" name="_top"/>
  <outline>
    <contour>
      <point x="542" y="714" type="curve"/>
      <point x="675" y="715" type="line"/>
      <point x="739" y="776"/>
      <point x="823" y="859"/>
      <point x="859" y="907" type="curve"/>
      <point x="643" y="903" type="line"/>
      <point x="609" y="841"/>
      <point x="577" y="778"/>
    </contour>
    <contour>
      <point x="162" y="554" type="curve"/>
      <point x="298" y="554" type="line"/>
      <point x="364" y="620"/>
      <point x="453" y="711"/>
      <point x="490" y="764" type="curve"/>
      <point x="286" y="764" type="line"/>
      <point x="245" y="694"/>
      <point x="204" y="626"/>
    </contour>
    <contour>
      <point x="440" y="553" type="curve"/>
      <point x="565" y="555" type="line"/>
      <point x="547" y="625"/>
      <point x="530" y="694"/>
      <point x="512" y="764" type="curve"/>
      <point x="311" y="764" type="line"/>
      <point x="332" y="711"/>
      <point x="394" y="620"/>
    </contour>
  </outline>
</glyph>
<glyph name="circumflexcomb_gravecomb" format="2">
  <anchor x="353" y="502" name="_top"/>
  <outline>
    <contour>
      <point x="568" y="713" type="curve"/>
      <point x="694" y="714" type="line"/>
      <point x="681" y="779"/>
      <point x="668" y="842"/>
      <point x="655" y="906" type="curve"/>
      <point x="457" y="902" type="line"/>
      <point x="475" y="854"/>
      <point x="528" y="773"/>
    </contour>
    <contour>
      <point x="162" y="554" type="curve"/>
      <point x="298" y="554" type="line"/>
      <point x="364" y="620"/>
      <point x="453" y="711"/>
      <point x="490" y="764" type="curve"/>
      <point x="286" y="764" type="line"/>
      <point x="245" y="694"/>
      <point x="204" y="626"/>
    </contour>
    <contour>
      <point x="440" y="553" type="curve"/>
      <point x="565" y="555" type="line"/>
      <point x="547" y="625"/>
      <point x="530" y="694"/>
      <point x="512" y="764" type="curve"/>
      <point x="311" y="764" type="line"/>
      <point x="332" y="711"/>
      <point x="394" y="620"/>
    </contour>
  </outline>
</glyph>
<glyph name="circumflexcomb_hookabovecomb.case" format="2">
  <anchor x="353" y="502" name="_top"/>
  <outline>
    <contour>
      <point x="162" y="554" type="curve"/>
      <point x="298" y="554" type="line"/>
      <point x="363" y="614"/>
      <point x="450" y="697"/>
      <point x="486" y="745" type="curve"/>
      <point x="282" y="745" type="line"/>
      <point x="242" y="681"/>
      <point x="203" y="619"/>
    </contour>
    <contour>
      <point x="440" y="553" type="curve"/>
      <point x="565" y="555" type="line"/>
      <point x="548" y="618"/>
      <point x="529" y="681"/>
      <point x="513" y="745" type="curve"/>
      <point x="307" y="745" type="line"/>
      <point x="329" y="697"/>
      <point x="393" y="614"/>
    </contour>
    <contour>
      <point x="539" y="697" type="line"/>
      <point x="643" y="697" type="line"/>
      <point x="645" y="707" type="line"/>
      <point x="723" y="712"/>
      <point x="775" y="745"/>
      <point x="787" y="803" type="curve" smooth="yes"/>
      <point x="803" y="882"/>
      <point x="721" y="912"/>
      <point x="648" y="912" type="curve" smooth="yes"/>
      <point x="633" y="912"/>
      <point x="547" y="898"/>
      <point x="517" y="893" type="curve"/>
      <point x="501" y="779" type="line"/>
      <point x="547" y="792"/>
      <point x="601" y="808"/>
      <point x="609" y="808" type="curve"/>
      <point x="628" y="806"/>
      <point x="640" y="796"/>
      <point x="637" y="783" type="curve" smooth="yes"/>
      <point x="632" y="763"/>
      <point x="593" y="748"/>
      <point x="549" y="744" type="curve"/>
    </contour>
  </outline>
</glyph>
<glyph name="dblgravecomb.case" format="2">
  <anchor x="353" y="502" name="_top"/>
  <anchor x="406" y="757" name="top"/>
  <outline>
    <contour>
      <point x="198" y="553" type="curve"/>
      <point x="329" y="555" type="line"/>
      <point x="321" y="622"/>
      <point x="313" y="688"/>
      <point x="305" y="756" type="curve"/>
      <point x="87" y="751" type="line"/>
      <point x="102" y="701"/>
      <point x="156" y="616"/>
    </contour>
    <contour>
      <point x="430" y="553" type="curve"/>
      <point x="557" y="555" type="line"/>
      <point x="557" y="622"/>
      <point x="557" y="688"/>
      <point x="557" y="756" type="curve"/>
      <point x="345" y="751" type="line"/>
      <point x="354" y="701"/>
      <point x="396" y="616"/>
    </contour>
  </outline>
</glyph>
<glyph name="f.calt" format="2">
  <advance width="425"/>
  <outline>
    <contour>
      <point x="11" y="0" type="curve"/>
      <point x="269" y="0" type="line"/>
      <point x="278" y="69"/>
      <point x="285" y="129"/>
      <point x="296" y="213" type="curve"/>
      <point x="350" y="470" type="line"/>
      <point x="359" y="502" type="line"/>
      <point x="350" y="512"/>
      <point x="337" y="530"/>
      <point x="338" y="536" type="curve" smooth="yes"/>
      <point x="342" y="555"/>
      <point x="367" y="570"/>
      <point x="390" y="570" type="curve" smooth="yes"/>
      <point x="402" y="570"/>
      <point x="434" y="562"/>
      <point x="479" y="549" type="curve"/>
      <point x="517" y="732" type="line"/>
      <point x="474" y="740"/>
      <point x="409" y="749"/>
      <point x="380" y="749" type="curve" smooth="yes"/>
      <point x="274" y="749"/>
      <point x="168" y="707"/>
      <point x="134" y="554" type="curve" smooth="yes"/>
      <point x="121" y="491"/>
      <point x="100" y="339"/>
      <point x="85" y="263" type="curve"/>
      <point x="74" y="213" type="line"/>
      <point x="49" y="129"/>
      <point x="32" y="69"/>
    </contour>
    <contour>
      <point x="27" y="321" type="line"/>
      <point x="164" y="343" type="line"/>
      <point x="266" y="343" type="line"/>
      <point x="318" y="336"/>
      <point x="366" y="329"/>
      <point x="422" y="321" type="curve"/>
      <point x="460" y="502" type="line"/>
      <point x="65" y="502" type="line"/>
    </contour>
  </outline>
</glyph>
<glyph name="four.dnom" format="2">
  <advance width="466"/>
  <outline>
    <contour>
      <point x="158" y="0" type="curve"/>
      <point x="356" y="0" type="line"/>
      <point x="362" y="48"/>
      <point x="366" y="83"/>
      <point x="373" y="141" type="curve"/>
      <point x="406" y="297" type="line"/>
      <point x="421" y="349"/>
      <point x="437" y="405"/>
      <point x="453" y="462" type="curve"/>
      <point x="256" y="462" type="line"/>
      <point x="235" y="437"/>
      <point x="212" y="409"/>
      <point x="190" y="383" type="curve"/>
      <point x="118" y="308" type="line"/>
      <point x="82" y="274"/>
      <point x="31" y="225"/>
      <point x="4" y="200" type="curve"/>
      <point x="-21" y="78" type="line"/>
      <point x="248" y="78" type="line"/>
      <point x="296" y="75"/>
      <point x="363" y="70"/>
      <point x="408" y="67" type="curve"/>
      <point x="444" y="235" type="line"/>
      <point x="397" y="232"/>
      <point x="326" y="227"/>
      <point x="278" y="224" type="curve"/>
      <point x="261" y="204" type="line"/>
      <point x="136" y="204" type="line"/>
      <point x="149" y="194" type="line"/>
      <point x="167" y="215"/>
      <point x="192" y="244"/>
      <point x="215" y="271" type="curve"/>
      <point x="308" y="365" type="line"/>
      <point x="342" y="391"/>
      <point x="369" y="412"/>
      <point x="396" y="433" type="curve"/>
      <point x="266" y="394" type="line"/>
      <point x="259" y="348"/>
      <point x="253" y="307"/>
      <point x="246" y="262" type="curve"/>
      <point x="224" y="159" type="line"/>
      <point x="199" y="139" type="line"/>
      <point x="182" y="81"/>
      <point x="172" y="47"/>
    </contour>
  </outline>
</glyph>
<glyph name="hookabovecomb.case" format="2">
  <anchor x="353" y="502" name="_top"/>
  <anchor x="414" y="793" name="top"/>
  <outline>
    <contour>
      <point x="283" y="554" type="line"/>
      <point x="403" y="554" type="line"/>
      <point x="405" y="566" type="line"/>
      <point x="484" y="566"/>
      <point x="553" y="601"/>
      <point x="567" y="668" type="curve" smooth="yes"/>
      <point x="586" y="758"/>
      <point x="492" y="793"/>
      <point x="408" y="793" type="curve" smooth="yes"/>
      <point x="390" y="793"/>
      <point x="291" y="777"/>
      <point x="257" y="771" type="curve"/>
      <point x="238" y="640" type="line"/>
      <point x="291" y="655"/>
      <point x="354" y="673"/>
      <point x="363" y="673" type="curve"/>
      <point x="385" y="671"/>
      <point x="398" y="660"/>
      <point x="395" y="645" type="curve" smooth="yes"/>
      <point x="390" y="621"/>
      <point x="344" y="608"/>
      <point x="294" y="608" type="curve"/>
    </contour>
  </outline>
</glyph>
<glyph name="hungarumlautcomb.case" format="2">
  <anchor x="353" y="502" name="_top"/>
  <anchor x="406" y="757" name="top"/>
  <outline>
    <contour>
      <point x="392" y="553" type="curve"/>
      <point x="532" y="555" type="line"/>
      <point x="609" y="618"/>
      <point x="711" y="705"/>
      <point x="753" y="756" type="curve"/>
      <point x="515" y="751" type="line"/>
      <point x="474" y="686"/>
      <point x="434" y="620"/>
    </contour>
    <contour>
      <point x="159" y="553" type="curve"/>
      <point x="290" y="555" type="line"/>
      <point x="360" y="618"/>
      <point x="452" y="705"/>
      <point x="488" y="756" type="curve"/>
      <point x="259" y="751" type="line"/>
      <point x="226" y="686"/>
      <point x="193" y="621"/>
    </contour>
  </outline>
</glyph>
